<svg width="352" height="321" viewBox="0 0 352 321" fill="none" xmlns="http://www.w3.org/2000/svg">
<path d="M240.001 80.1719H240.161" stroke="#123018" stroke-width="32" stroke-linecap="round" stroke-linejoin="round"/>
<path d="M38.4015 256.169H176.001C209.949 256.169 242.506 242.683 266.511 218.679C290.516 194.674 304.001 162.117 304.001 128.169V80.1691C304.037 66.5356 299.719 53.2469 291.675 42.2393C283.631 31.2317 272.282 23.0804 259.282 18.9732C246.282 14.8661 232.31 15.0176 219.402 19.4058C206.494 23.794 195.325 32.1895 187.521 43.3691L16.0015 288.169" stroke="#123018" stroke-width="32" stroke-linecap="round" stroke-linejoin="round"/>
<path d="M304.001 80.1719L336.001 88.1719L304.001 96.1719" stroke="#123018" stroke-width="32" stroke-linecap="round" stroke-linejoin="round"/>
<path d="M144.001 256.172V304.172" stroke="#123018" stroke-width="32" stroke-linecap="round" stroke-linejoin="round"/>
<path d="M208.001 252.172V304.172" stroke="#123018" stroke-width="32" stroke-linecap="round" stroke-linejoin="round"/>
<path d="M96.0015 256.166C115.731 256.165 134.982 250.085 151.133 238.754C167.284 227.422 179.552 211.389 186.266 192.837C192.981 174.285 193.816 154.114 188.658 135.07C183.501 116.027 172.601 99.0344 157.441 86.4062" stroke="#123018" stroke-width="32" stroke-linecap="round" stroke-linejoin="round"/>
</svg>
