<svg width="785" height="459" viewBox="0 0 785 459" fill="none" xmlns="http://www.w3.org/2000/svg">
<path d="M481.907 261.206L485.433 263.609L486.479 263.557L495.236 260.549L496.23 263.755L495.529 266.461L493.636 267.964L488.907 267.662L482.138 263.504L481.907 261.206Z" fill="white"/>
<path d="M497.699 226.544L498.452 229.552L506.974 230.304L507.57 224.132L509.214 223.235L509.662 220.978L506.974 221.731L503.984 226.252L497.699 226.544Z" fill="white"/>
<path d="M515.083 193.792L516.457 204.563L519.88 205.315L520.2 207.252L517.745 209.301L522.318 212.992L531.203 209.794L531.912 206.008L537.505 202.517L539.65 194.426L541.249 192.704L539.59 189.817L545.002 186.47L544.311 185.502L541.813 185.657L541.587 187.956L538.233 187.923L538.171 184.855L537.092 183.567L535.277 185.216L535.329 186.731L532.59 187.767L527.531 187.448L520.963 194.329L515.083 193.792Z" fill="white"/>
<path d="M419.912 178.847V182.831L421.054 184.983L421.874 184.887L423.283 182.321L422.462 181.171L422.143 178.327L421.054 177.315L419.912 178.847Z" fill="white"/>
<path d="M476.703 178.958L480.852 184.369L479.634 185.796L476.695 185.286L473.049 182.018L473.245 179.872L476.703 178.958Z" fill="white"/>
<path d="M406.599 305.87L409.547 316.873L409.478 320.351L405.165 324.984L404.518 332.511L421.115 332.658L426.51 334.612L430.96 334.032L428.366 330.781L428.376 321.499L433.477 321.282V317.661L429.335 317.489L428.506 308.914L426.76 308.938L425.817 308.09L424.79 308.144L423.425 310.79H418.17L416.95 309.563L417.313 307.825L415.877 305.724L406.599 305.87Z" fill="white"/>
<path d="M404.81 302.862L406.314 304.815L408.259 302.973L407.688 301.064L407.205 301.029L404.81 302.862Z" fill="white"/>
<path d="M248.283 359.022L249.96 360.593L243.589 370.06L241.35 372.539L242.127 383.352L247.045 389.326L242.913 396.535L239.784 397.885H236.205L237.208 403.512L231.615 405.432L232.955 410.161L229.601 420.862L233.742 424.242L231.503 429.757L227.699 435.732L229.713 439.897L224.795 440.683L220.767 435.732L220.093 420.3L213.835 394.091L215.728 384.928L211.7 373.215L214.38 358.011L216.843 355.08L216.238 352.858L219.402 349.97L226.456 350.453L230.398 354.663L234.953 354.741L239.621 357.594L238.246 360.811L238.575 364.061L245.187 363.749L248.283 359.022Z" fill="white"/>
<path d="M233.978 445.973L234.203 450.924L238.006 450.587L241.248 448.443L235.768 447.319L233.978 445.973Z" fill="white"/>
<path d="M399.693 161.868L399.131 163.035L399.614 163.865L401.629 163.45H403.34L405.197 165.022L409.147 164.305L412.051 162.576L412.794 161.409L412.682 159.905L410.071 157.951L406.57 157.986L406.276 159.974L402.593 161.771L399.693 161.868Z" fill="white"/>
<path d="M642.194 367.476L641.891 389.414L638.52 391.886L638.217 394.047L642.815 397.133L654.165 394.972H659.991L662.136 391.877L675.015 389.405L684.213 392.189L683.599 395.897L684.827 399.605L691.882 398.369L692.185 400.22L687.586 403.616L689.116 404.852L692.486 403.616L691.569 413.816L698.009 418.76L701.692 417.524L703.533 419.376L714.268 417.828L724.391 401.447L728.073 400.522L735.43 386.926L737.271 375.187L732.672 369.318L734.514 368.082L730.83 356.646L726.846 353.863L727.46 338.415L723.776 335.633L722.86 326.981H721.018L714.88 347.373L711.51 347.685L703.842 339.957L708.139 328.52L700.168 326.973L691.272 329.445L688.818 336.549L684.834 337.474L684.53 332.53L668.278 342.419L668.582 346.127L666.128 349.524H659.989L646.799 355.084L642.194 367.476Z" fill="white"/>
<path d="M698.008 426.498L696.477 432.679L696.781 437.001L701.38 436.689L706.593 428.659L698.008 426.498Z" fill="white"/>
<path d="M478.164 177.083L477.291 178.569L481.362 183.911L482.78 183.453L485.114 185.899L486.125 181.612L488.658 182.018L488.554 180.789L484.389 177.143L483.594 179.286L478.164 177.083Z" fill="white"/>
<path d="M411.941 169.493L411.622 170.02L417.423 176.001L419.55 172.871L419.472 171.637L417.615 169.381L411.941 169.493Z" fill="white"/>
<path d="M585.489 216.317L584.355 218.366L587.293 223.95L587.38 228.307L587.915 229.473L591.364 229.534L593.317 227.659L594.735 228.514L595.02 231.166L596.153 230.458L596.222 227.069L595.271 226.957L594.675 224.078L592.272 223.992L591.676 222.392L593.145 220.43L593.169 219.46H588.9L585.489 216.317Z" fill="white"/>
<path d="M383.252 150.113L382.698 151.496L388.645 155.421L389.045 155.472L389.42 154.378L390.257 153.79L388.921 152.291H388.005L386.75 150.865L383.252 150.113Z" fill="#F7D15D"/>
<path d="M373.726 251.905L376.872 251.655L382.032 258.95L377.243 262.563L373.777 261.671L369.117 261.733L368.365 264.463L364.458 264.653L363.387 263.192L364.772 258.75L373.726 251.905Z" fill="white"/>
<path d="M426.325 172.475L426.464 176.78L427.916 179.805L433.37 179.9L435.825 178.163L438.237 177.204L437.649 174.454L438.194 172.985L436.966 172.344L435.279 172.483L433.956 173.815L428.407 173.858L426.325 172.475Z" fill="white"/>
<path d="M447.737 296.794L451.428 296.716L450.469 299.948L449.534 300.76H448.392L447.58 298.573L447.737 296.794Z" fill="white"/>
<path d="M380.745 273.697H382.578L382.682 268.493L384.997 265.13L384.893 259.278L382.791 259.226L379.187 262.042L380.691 264.912L380.745 273.697Z" fill="white"/>
<path d="M658.271 273.489L655.782 276.507L657.822 277.148L658.971 275.54L658.271 273.489Z" fill="white"/>
<path d="M207.864 319.77L214.978 316.666L217.329 316.892L218.894 323.426L229.733 327.03L231.523 332.553L235.992 333.115L237.894 337.844L236.554 342.122L229.284 342.684L226.604 349.556L220.899 349.444L219.109 349.107L215.816 352.304L214.191 352.148L208.598 339.191L210.145 336.875L210.69 327.712L209.307 322.257L207.864 319.77Z" fill="white"/>
<path d="M255.864 376.873L261.266 366.482L261.464 357.752L271.543 351.251H277.188L281.623 343.739L282.427 329.321L280.612 325.466L291.296 315.715L291.702 304.954L277.188 297.849L259.658 292.369L251.394 291.557L253.615 286.888L253.011 279.784L251.203 279.188L248.532 284.496L247.132 286.25L243.537 284.66L231.444 288.921L227.416 283.848L228.064 278.549L224.26 282.421L220.059 280.156L219.635 280.753L219.644 282.594L223.266 284.539L217.829 290.269L214.397 290.235L210.922 286.7L206.989 286.821L206.505 291.021L208.761 293.76L206.098 302.292L202.986 302.533L198.033 305.663L196.823 311.809L201.119 316.408L201.906 315.518L204.923 314.706L207.499 319.046L214.873 315.882L217.734 316.047L219.705 323.023L230.225 326.36L232.04 331.924L236.518 332.461L238.653 337.775L237.21 342.504L239.094 344.978L238.818 348.661L243.866 348.184L248.491 354.028L248.128 358.133L250.868 360.449L244.298 370.399L255.864 376.873Z" fill="white"/>
<path d="M191.354 221.521L190.265 221.184L190.179 223.285L191.519 224.634L192.436 223.285L191.354 221.521Z" fill="white"/>
<path d="M193.523 224.806L192.019 225.644L193.436 227.665L194.188 226.654L193.523 224.806Z" fill="white"/>
<path d="M198.373 226.319L196.782 226.232L196.947 227.244L198.114 228.931L199.116 227.832L198.373 226.319Z" fill="white"/>
<path d="M197.621 224.305L195.028 223.206L194.527 220.597L195.529 220.172L196.532 222.195L197.534 222.955L197.621 224.305Z" fill="white"/>
<path d="M195.114 218.997L193.774 218.66L193.523 216.974L192.106 216.473L193.023 215.547L194.691 216.135L195.944 216.897L195.114 218.997Z" fill="white"/>
<path d="M585.341 211.97L586.681 213.803L591.209 213.837L590.751 211.33L585.341 211.97Z" fill="white"/>
<path d="M423.793 352.998L425.651 353.568L425.391 358.882L427.302 359.142L431.693 355.183L436.966 355.753L438.365 352.208L445.038 346.113L437.025 336.89L436.921 335.376L436.038 335.116L433.608 337.356L427.298 337.51L426.414 345.376L423.935 345.946L423.793 352.998Z" fill="white"/>
<path d="M425.651 141.27L426.948 143.405L426.429 145.108L426.515 146.457L426.991 148.073L429.671 146.552L433 146.638L435.334 147.597H441.256L442.985 143.456L444.022 141.892V140.847L440.305 135.617L437.02 134.312L434.34 134.009L432.005 134.752L432.093 137.103L428.852 141.201L425.651 141.27Z" fill="white"/>
<path d="M161.056 241.637L161.013 244.791H161.739L164.211 240.176H162.534L161.056 241.637Z" fill="white"/>
<path d="M121 39.591L122.72 42.193L123.584 45.668L127.889 46.749L130.906 43.499L133.491 44.805L140.812 45.452L145.981 43.282L146.845 50.439H149.862V47.405L152.879 47.621L160.417 56.516L165.37 59.551L162.786 63.674L163.867 64.755L173.54 66.708L173.756 71.048L176.341 71.481L176.989 64.971L181.078 63.891L184.095 68.447L190.552 71.481L193.785 72.128L195.937 69.526L196.153 65.402L200.026 63.015L201.314 66.491L197.865 72.568L198.297 75.601L200.234 72.568L204.107 69.093L204.323 64.537L202.171 61.061L202.819 58.244L207.988 55.641L210.357 57.379L210.789 72.567L214.446 69.317L216.598 70.622L213.581 75.826L217.454 76.691L223.056 68.012L227.793 72.998L225.857 81.893L221.12 84.496L216.599 82.327L208.422 84.063L209.286 86.881L207.134 90.357L200.461 91.878L192.923 97.738L186.25 106.634L185.386 109.451L189.907 111.188L191.627 115.527L197.868 121.82L207.774 126.159L205.622 136.134L205.406 138.952L207.991 140.688L211.44 136.133L211.872 127.454L217.257 127.238L219.841 122.25L220.274 114.661L227.163 101.211L235.772 104.245L240.293 110.538L238.356 116.83L241.805 118.784L250.199 113.138L252.567 128.542L260.321 137.869L260.537 142.64L251.928 144.81L247.84 149.148L239.231 147.195L234.926 146.978L227.388 152.838L231.909 151.757L237.51 150.677L238.591 151.982L237.087 156.753L237.303 161.093L239.888 162.829L242.472 162.181L243.768 160.228H245.488L242.687 165.433L237.302 165.648L234.934 169.124H231.917L231.053 166.521L235.358 162.183L230.189 163.92L229.956 156.546L228.469 155.683L223.948 157.636L223.516 161.327H213.178L204.346 167.407L192.504 171.315L191.216 169.577L197.18 160.675H193.792L191.64 156.543L187.257 153.197L182.555 152.808L174.127 146.904L113.005 136.861L111.994 132.719L106.392 127.515V123.176L107.257 119.269L106.824 117.101L104.672 114.93L104.24 111.455L109.842 107.547L106.393 88.894L101.656 88.677L97.351 83.032L121 39.591Z" fill="#F7D15D"/>
<path d="M99.917 108.526L98.447 111.344L98.957 113.34L99.916 113.938L99.691 114.75L98.662 115.044L98.956 118.009L100.062 119.124L100.944 118.165L99.838 115.278L100.495 112.979L102.111 110.827L100.936 108.83L99.917 108.526Z" fill="white"/>
<path d="M104.775 125.417L103.452 125.937L105.881 128.755L106.469 132.091L108.898 134.683L110.956 134.312V130.906L108.458 129.349L104.775 125.417Z" fill="white"/>
<path d="M237.383 54.242L235.853 55.789L237.193 57.915L243.521 58.685L239.493 54.433L237.383 54.242Z" fill="white"/>
<path d="M160.338 28.552L160.528 32.027L153.63 39.175L155.359 44.966L160.338 43.618L163.216 39.365L170.494 36.659L176.432 36.27L171.833 31.248L169.534 32.985L167.805 32.406L166.846 30.28L164.737 28.154L160.338 28.552Z" fill="white"/>
<path d="M169.346 18.317L167.816 21.023L175.293 23.729L177.973 19.674L179.123 22.381H181.042L184.681 18.326L180.272 17.168L178.543 15.82L176.244 18.136L169.346 18.317Z" fill="white"/>
<path d="M182.381 23.727L176.443 26.235V28.163L184.11 31.059L182.381 32.987L183.531 35.494L188.32 33.368H192.348L194.267 36.454L197.526 33.169L196.756 30.074L194.076 31.042L193.696 27.179L195.036 24.863H193.696L191.587 26.212L190.628 26.981L191.207 29.688L189.677 30.846L187.378 30.656L186.799 27.18L182.381 23.727Z" fill="white"/>
<path d="M190.238 17.738L189.659 19.665L193.298 21.403L195.978 19.856L195.788 18.698L190.238 17.738Z" fill="white"/>
<path d="M193.108 14.453L190.429 15.421L190.619 16.771L196.557 16.382L196.367 15.033L193.108 14.453Z" fill="white"/>
<path d="M205.953 17.738L205.573 19.086L204.614 20.435V22.364L208.253 21.785L212.083 25.07H213.423V21.785L209.593 17.532L205.953 17.738Z" fill="white"/>
<path d="M215.73 21.6L217.26 23.338L215.92 25.654L216.879 28.161L221.097 25.844V24.108L218.607 21.212L215.73 21.6Z" fill="white"/>
<path d="M221.288 17.159L221.478 20.245H226.656L227.996 21.403L227.806 22.751L223.207 23.331L226.466 27.774L230.875 28.544L237.003 25.839L228.186 12.509L225.506 14.247L225.696 16.563L222.627 15.405L221.288 17.159Z" fill="white"/>
<path d="M176.632 38.985L169.354 40.913L165.135 44.586L165.515 48.64L173.182 50.957L171.453 54.821L165.895 51.344L164.365 54.24L168.004 56.747L167.814 60.801L173.372 62.348L180.08 61.959L181.229 59.833L186.208 65.434L189.657 64.277L190.236 60.413L192.726 62.15L193.106 58.286L190.038 56.358L190.228 44.196L187.548 42.07L184.678 45.934L176.632 38.985Z" fill="white"/>
<path d="M200.015 47.482L197.526 46.324L196.186 48.061L198.866 52.314L199.056 56.368L204.805 52.893V47.871L206.914 45.745L204.805 44.198H201.356L200.015 47.482Z" fill="white"/>
<path d="M212.281 45.744L208.253 49.029L209.212 53.083H211.702L212.851 50.957L214.58 52.694L216.309 52.504L220.908 48.64L212.281 45.744Z" fill="white"/>
<path d="M211.892 39.365L210.933 41.293L215.151 42.841L216.301 41.103L211.892 39.365Z" fill="white"/>
<path d="M209.402 32.026L205.184 32.605L202.694 34.92L207.293 35.11L205.953 38.585L206.912 40.133L208.252 39.943L211.511 34.731L209.402 32.026Z" fill="white"/>
<path d="M216.689 30.679L214.39 31.449L214.77 34.535L218.6 37.042L218.79 38.969L217.641 40.128L218.22 43.992L232.975 48.815L237.003 50.164L241.031 46.689L236.242 42.825L231.833 43.983L225.705 43.404L223.406 41.088L222.827 34.717L218.997 32.789L216.689 30.679Z" fill="white"/>
<path d="M228.756 50.766L224.538 50.376L219.559 52.303L216.879 55.969L217.648 66.012L225.886 66.402L233.743 70.266L239.302 76.637L243.52 76.447L242.37 82.428L238.541 88.799L234.323 90.725L231.254 90.147L229.724 88.799L227.425 91.885L228.384 94.971L231.643 95.16L235.671 93.232L239.12 102.118L247.746 107.721L253.684 100.192L248.705 92.084L251.583 88.8L255.611 95.558L262.889 89.187L261.55 86.291L256.57 87.839L253.122 78.373L256.381 72.97L249.863 66.021L246.224 68.528L242.775 60.999L235.498 61.967L233.579 52.891L227.641 56.946L227.062 61.967H223.803L224.183 57.524L228.756 50.766Z" fill="white"/>
<path d="M231.254 32.415V34.153L227.036 35.121L228.185 37.048L232.974 38.976L238.342 39.556L242.173 42.261L246.002 40.134L243.321 37.429H246.77L248.879 35.113L254.057 34.343V33.185L251.179 31.257L251.558 29.13L259.606 30.478L271.492 25.845L267.082 24.497L268.232 22.95H277.429L278.96 21.403L260.367 14.834L255.957 13.287L251.168 16.763L245.8 12.32L242.922 12.13L242.343 15.805L238.705 12.52L234.487 13.869L235.256 15.995L241.584 17.345L241.204 20.431L244.653 22.556L253.091 20.431L253.281 23.327L246.383 26.612L242.165 23.327L238.335 23.716L242.165 29.127L240.246 30.096L237.368 27.588L235.259 28.936L237.178 32.602H240.437L239.668 36.077L236.988 35.688L233.539 32.014L231.254 32.415Z" fill="white"/>
<path d="M214.174 85.568L210.517 90.167L210.292 95.232L213.49 93.391H217.371L220.111 95.924L222.626 93.848L214.174 85.568Z" fill="white"/>
<path d="M258.699 145.386L249.563 154.134L250.479 156.208L261.665 160.349L263.264 157.591L262.348 152.992L258.691 153.45L256.634 151.151L260.057 147.702L258.699 145.386Z" fill="white"/>
<path d="M407.256 305.006L416.168 304.851L417.976 307.418L417.907 309.311L418.572 309.916H422.998L424.269 307.417H426.077L426.811 308.159L429.29 308.09L430.025 316.804L434.312 316.943V317.618L445.833 322.813L446.369 323.825H448.78L448.512 320.177L444.156 318.085L444.425 315.319L446.301 310.927L450.588 310.788L446.905 298.564L446.973 293.369L452.799 284.259L452.867 282.981L451.993 282.504L452.028 280.032L450.966 279.937L449.894 278.571L432.304 277.776L429.078 280.914L423.798 277.439L421.94 278.58L420.592 289.93L417.255 292.505L416.252 294.788L416.431 298.169L410.414 303.087L408.814 302.361L409.03 303.301L407.256 305.006Z" fill="white"/>
<path d="M412.685 277.638L416.713 281.994L418.303 279.937L420.835 280.041L421.379 278.035L423.869 276.479L429.038 280.041L432.02 277.085L443.594 277.595L432.858 266.513L434.301 265.616L434.499 263.662L432.061 262.513H428.481L422.715 268.228L422.518 270.579L417.945 270.433L417.799 271.436L414.817 271.131L412.129 276.239L412.685 277.638Z" fill="white"/>
<path d="M408.657 284.96L408.605 286.215L412.736 286.319L412.882 297.047L409.105 296.943L406.918 295.24L405.225 296.191L405.147 296.667L406.02 297.09L406.271 299.294L403.937 301.3L404.438 302.357L407.023 300.351H408.267L408.663 301.551L410.307 302.251L415.578 297.791L415.474 294.532L416.573 291.879L419.953 289.372L420.86 280.893L418.458 280.902L415.675 284.714L408.657 284.96Z" fill="white"/>
<path d="M393.02 161.229L389.249 165.24L389.327 165.645L390.874 165.162L392.267 167.099L394.619 166.269L396.244 167.532L396.911 167.152L398.916 164.006L398.405 163.522L396.426 163.471L395.467 161.508L393.02 161.229Z" fill="white"/>
<path d="M357.717 279.971L361.414 277.354L366.014 276.548L370.707 277.561L368.312 273.939L367.611 271.726L368.312 265.182L364.12 265.38L362.22 263.566L358.226 263.67L356.325 263.974L356.523 268.399L355.521 268.805L354.318 271.02L357.413 274.64L357.717 279.971Z" fill="white"/>
<path d="M230.624 441.919L226.933 450.028L233.304 450.702L233.416 445.299L230.624 441.919Z" fill="white"/>
<path d="M229.37 440.648L226.595 443.716L226.258 447.32L220.89 444.277L215.185 436.056L213.508 433.124L215.859 430.081L215.634 426.251L212.954 425.127L210.828 423.555L211.277 421.411L214.069 420.624L214.631 408.237L210.275 405.757L207.431 341.28L208.166 340.002L213.733 352.838L215.514 352.873L216.093 354.922L213.724 357.79L211.001 373.238L214.874 385.133L213.084 394.14L219.394 420.625L220.06 436.115L224.581 441.344L229.37 440.648Z" fill="white"/>
<path d="M210.95 408.242L209.835 409.928L210.397 412.86L211.512 412.972L212.074 409.254L210.95 408.242Z" fill="white"/>
<path d="M397.264 277.837L400.047 280.398L399.848 284.357L415.114 284.003L416.359 282.604L411.984 277.893L411.336 276.19L414.12 270.978L412.227 267.52L410.636 266.665V264.91L412.477 263.708L412.581 258.245L411.121 258.081L411.097 260.951L404.683 272.923L400.758 273.122L398.07 274.972L397.264 277.837Z" fill="white"/>
<path d="M563.731 144.537L560.741 152.058L556.617 151.841L552.268 161.359L555.959 166.06L548.353 176.564L544.446 175.906L541.835 179.191L542.483 181.162L545.526 181.379L547.047 184.879L550.091 185.537L559.435 197.577V203.706L563.998 206.55L568.994 205.677L575.297 209.396L582.902 211.583L586.593 211.144L590.725 210.703L599.412 205.015L602.24 205.455L603.32 208.022L605.716 208.74L608.976 213.553L606.806 218.367L608.112 221.652L611.802 222.964L612.449 226.906L616.799 227.345L617.446 225.374L623.748 222.089L627.655 222.306L632.218 227.336L635.261 226.024L637.215 226.24L638.088 228.652L639.609 228.868L641.778 225.808L650.466 222.523L658.289 213.11L660.899 204.136L660.682 198.224L657.423 197.568L659.376 195.38L658.942 191.879L650.687 183.565V179.408L653.073 176.346L655.461 175.248L655.677 172.836H649.592L648.503 176.121L645.675 175.465L642.2 171.747L644.37 166.059L647.413 162.774L650.24 162.991L649.806 168.022L651.327 169.335L655.018 165.618L656.324 165.402L655.891 162.558L659.367 158.4L661.977 158.616L663.498 153.803L665.279 152.861L665.461 149.861L663.732 148.046L663.585 143.31L666.914 143.093L666.698 130.879L664.364 132.279L663.5 135.409L659.603 135.4L648.305 129.046L640.145 119.209L631.864 119.123L629.757 120.956L632.437 127.093L631.502 132.851L628.167 134.234L626.291 134.087L626.152 139.783L628.106 140.224L631.582 138.694L636.145 140.881V143.069L632.885 143.285L630.274 148.973L627.888 149.188L619.416 160.348L610.514 164.289L604.428 164.73L600.304 161.886L594.435 164.954L588.133 162.983L586.612 158.825L575.97 158.168L570.324 148.98H567.938L566.018 144.718L563.731 144.537Z" fill="white"/>
<path d="M641.035 231.064L638.971 231.643L637.484 233.476L638.72 235.887L640.534 236.05L642.6 234.218L643.092 231.807L641.035 231.064Z" fill="white"/>
<path d="M203.559 256.66L201.778 256.478L190.005 266.185L188.76 269.599L187.152 269.781L187.869 277.327L183.764 287.397L188.224 291.173L193.938 291.536L197.862 297.293L203.567 297.476L203.385 301.788H205.52L207.836 293.879L205.692 291.185L206.228 286.154L210.688 285.791L210.152 274.103L200.159 270.871L197.843 264.578L203.559 256.66Z" fill="white"/>
<path d="M172.138 261.154L173.34 263.506L174.317 264.803L173.003 268.701L170.496 266.937L166.399 263.185V260.705L172.138 261.154Z" fill="#F7D15D"/>
<path d="M175.137 228.255V229.355L179.736 229.441L181.905 228.178L182.242 229.104L186.754 230.202L190.765 233.824L189.848 235.086L190.013 236.522L193.358 237.361L196.703 235.847L198.207 234.334L196.038 233.236L184.844 226.667L180.92 226.243L175.137 228.255Z" fill="white"/>
<path d="M319.243 248.673L317.601 249.615L318.776 250.556L320.185 249.848L319.243 248.673Z" fill="white"/>
<path d="M323.279 250.574L322.208 251.525L322.97 252.934L324.802 252.113L323.279 250.574Z" fill="white"/>
<path d="M320.937 253.245L319.562 254.066L321.041 256.045L322.209 255.433L320.937 253.245Z" fill="white"/>
<path d="M453.788 196.203L454.85 196.974L451.556 200.093L449.983 200.041L448.816 199.22L448.972 197.691L451.358 197.536L453.788 196.203Z" fill="white"/>
<path d="M406.435 157.33H409.002H410.265L412.314 158.791L416.109 155.636L412.426 153.009L408.778 151.244L406.28 151.694L402.891 153.872L406.435 157.33Z" fill="white"/>
<path d="M391.49 142.643L394.576 142.143V139.965L397.16 139.54L398.578 140.967L400.073 141.131L402.407 140.119L404.49 140.707L406.322 142.299L406.573 148.254L408.405 150.692L405.994 151.029L401.991 153.544L402.329 154.383L405.908 157.737L405.657 159.414L402.329 161.091L399.244 161.177L398.491 162.767H396.91L396.158 161.091L393.409 160.416L393.321 157.649L391.931 156.879L392.045 155.018L391.639 153.69L389.657 151.866L390.071 149.012L392.232 148.001L391.49 142.643Z" fill="#F7D15D"/>
<path d="M396.356 128.485L392.77 132.453L392.64 135.037L394.275 139.3L396.834 138.816L396.515 135.333L398.279 133.362L398.245 131.814L397 128.591L396.356 128.485Z" fill="white"/>
<path d="M398.212 135.763L397.15 135.992V137.575L398.278 138.45L399.275 138.2L399.032 136.697L398.212 135.763Z" fill="white"/>
<path d="M401.539 134.257L400.59 134.487L399.534 135.455L399.982 137.409L401.274 137.916L399.94 138.451L399.685 139.136H401.69L402.292 138.037L401.524 137.659L401.774 136.697L402.69 135.492L402.44 134.45L401.539 134.257Z" fill="white"/>
<path d="M478.224 258.18L477.731 261.083L481.155 261.031L481.207 256.76L479.954 255.99L478.224 258.18Z" fill="white"/>
<path d="M225.463 243.78L224.702 245.396L225.619 246.624L226.76 245.63L225.463 243.78Z" fill="white"/>
<path d="M211.667 239.942L207.094 236.951L204.207 235.93L203.629 241.451L204.207 241.404L204.968 242.865L205.962 241.715L208.858 240.945L211.374 241.481L211.667 239.942Z" fill="white"/>
<path d="M393.858 194.173L390.332 192.987L375.655 195.745L372.457 198.174L374.41 208.262L368.575 208.495L365.066 214.141L356.707 216.146L356.732 220.251L384.264 241.299L388.956 241.697L404.61 229.466L403.045 227.495L400.107 227.097L398.343 224.142V211.909L397.166 210.725L397.365 207.57L394.235 204.415L393.846 201.061L395.212 200.075L394.622 196.522L393.858 194.173Z" fill="white"/>
<path d="M183.219 287.839L179.131 290.38L178.837 294.151L178.016 295.385L180.592 297.858L179.477 299.077L179.736 302.19L184.343 303.288L191.319 295.032L191.302 292.154L187.957 291.938L183.219 287.839Z" fill="white"/>
<path d="M152.766 289.852L152.23 292.23L151.236 293.232L151.919 294.46L153.673 293.77L154.511 292.309L153.975 290.772L152.766 289.852Z" fill="white"/>
<path d="M431.795 121.708L426.955 121.535L423.887 123.41L423.844 124.802L425.831 126.677L432.013 127.724L431.795 121.708Z" fill="white"/>
<path d="M421.469 122.451L420.161 122.891L421.469 123.117L422.064 123.807L422.775 122.955L422.066 121.74L421.469 122.451Z" fill="white"/>
<path d="M422.025 124.201L420.163 125.034L419.52 126.145L420.163 126.867L422.525 125.992L423.662 125.24L422.025 124.201Z" fill="white"/>
<path d="M435.393 207.631L437.701 207.693L442.196 208.937L444.331 208.998L446.977 206.785H448.211L450.46 208.03H453.305L453.815 207.995L455.613 213.165L456.123 214.833L456.6 217.331L455.75 217.953L454.289 217.219L452.603 211.721L451.082 211.61L450.971 213.477L451.983 216.709L460.083 226.736L460.256 231.041L457.897 233.764L435.734 233.513L435.393 207.631Z" fill="white"/>
<path d="M465.457 252.268L465.241 247.175L468.664 243.183L469.59 243.892L471.276 249.529L479.367 255.552L477.897 257.36L471.975 252.269L465.457 252.268Z" fill="white"/>
<path d="M371.798 174.731H360.784L358.562 173.727L357.491 173.805L356.194 176.501L356.652 179.276L360.862 179.665L361.398 181.436L359.565 191.766L359.643 193.617L362.624 195.234L366.063 195.466L372.944 193.772L376.307 189.539L376.384 185.226L382.349 179.831L382.651 177.445L377.223 177.367L371.798 174.731Z" fill="white"/>
<path d="M343.498 216.853L341.985 217.726L342.685 218.435L343.498 216.853Z" fill="white"/>
<path d="M338.242 217.017L336.367 217.493L337.302 218.911H338.709L338.242 217.017Z" fill="white"/>
<path d="M333.782 215.6L332.606 216.784L334.249 218.202L335.184 216.076L333.782 215.6Z" fill="white"/>
<path d="M382.811 185.286L381.436 185.753L381.74 186.988H383.728L384.567 186.063L382.811 185.286Z" fill="white"/>
<path d="M459.215 267.015L465.507 253.01L471.757 253.045L477.298 257.859L476.908 261.827H481.204L481.644 264.213L488.594 268.37L492.88 268.587L484.73 277.343L473.536 280.792H470.763L465.819 276.573L463.866 275.753L460.08 270.177L457.581 270.212L457.287 267.653L459.215 267.015Z" fill="white"/>
<path d="M422.305 98.611L424.095 99.397L425.199 101.471L424.095 102.907L418.545 108.975L417.593 112.174L418.864 116.807L423.142 120.006L428.848 117.291L433.446 116.651L437.725 109.779L434.552 102.267L431.534 95.075L432.011 90.442L430.11 90.122L429.618 86.742L427.059 82.567L424.223 84.529L423.109 89.085L420.101 87.278L415.916 86.257L414.982 87.347L416.589 88.8L419.52 88.747L421.879 92.559L422.305 98.611Z" fill="white"/>
<path d="M250.427 436.802L248.154 436.552L245.889 438.073L247.531 439.854L250.427 436.802Z" fill="white"/>
<path d="M252.692 435.661L251.94 438.072L249.796 439.973L249.926 440.604L253.581 439.204L255.094 437.303L252.692 435.661Z" fill="white"/>
<path d="M382.206 151.997L380.296 152.464L376.476 156.622L375.327 156.7L373.797 155.619L372.804 155.852L372.042 158.238L366.458 158.393L366.614 159.629L370.434 162.172L374.869 165.715L374.792 169.951L372.424 174.108L377.55 176.572L382.754 176.726L384.36 174.876L387.646 174.954L388.562 175.802L391.847 175.569L393.533 173.407L391.388 170.866L391.233 169.25L391.691 167.479L390.62 165.94L388.787 166.475L388.555 165.092L392.609 160.623V157.926L390.261 157.159L388.829 156.172L382.206 151.997Z" fill="#F7D15D"/>
<path d="M245.396 275.694L250.454 278.848L247.808 284.103L246.849 285.313L244.04 283.698L244.119 278.035L245.396 275.694Z" fill="white"/>
<path d="M509.256 345.339L507.284 345.468L507.155 347.19L508.468 347.459L510.44 346.534L509.256 345.339Z" fill="white"/>
<path d="M486.09 321.075L486.746 322.536H487.801L488.327 320.679L486.09 321.075Z" fill="white"/>
<path d="M228.056 248.231L227.139 249.078L227.822 250.461L229.118 250.081L228.056 248.231Z" fill="white"/>
<path d="M397.272 176.425L395.585 178.12L395.431 179.658L396.805 180.505L397.341 180.429L397.644 178.189L397.272 176.425Z" fill="white"/>
<path d="M223.328 242.474L222.032 243.009L222.49 244.158L224.011 243.164L223.708 242.853L223.328 242.474Z" fill="white"/>
<path d="M404.671 285.055L404.567 287.206L399.692 287.102L396.71 292.868L403.722 300.535L405.458 299.082L405.406 297.579L404.214 297.025V295.968L406.902 294.267L409.289 296.074L411.927 296.126L411.873 287.059L407.697 286.863L407.645 284.96L404.671 285.055Z" fill="white"/>
<path d="M369.862 126.393L368.28 128.788L368.911 129.747H372.559V131.347L371.607 132.625L372.239 135.979L374.297 139.973L375.878 143.645L378.411 144.604L379.516 146.524L379.361 148.279L377.779 149.238L377.623 150.033L378.729 150.673L377.778 151.952L375.557 152.911L371.278 152.434L364.614 155.469L362.393 154.354L368.738 150.68L367.942 150.203L364.614 149.883L366.672 146.85L366.991 144.29L369.687 143.971L369.212 139.018L366.038 138.863L365.088 137.748L365.243 134.074L363.342 134.23L365.243 127.842L368.735 125.282L369.862 126.393Z" fill="#F7D15D"/>
<path d="M363.207 137.102L360.354 137.422L360.198 139.982L362.099 141.26L364.157 140.785L364.953 139.349L363.207 137.102Z" fill="white"/>
<path d="M464.377 174.005L467.204 177.696L470.731 179.321L472.9 179.311L476.626 178.301L477.561 176.84L466.54 172.717L464.377 174.005Z" fill="white"/>
<path d="M368.324 271.588L369.292 273.861L371.816 277.82L373.216 277.768L377.035 275.597L376.767 263.243L373.81 262.379L369.669 262.491L368.324 271.588Z" fill="white"/>
<path d="M261.82 40.807L260.644 42.684L262.762 44.801L261.82 46.919L264.88 50.913L268.641 49.737L273.577 49.271L279.221 55.382L282.982 65.486L279.931 71.831L284.158 71.123L286.512 72.532L286.744 75.592L281.576 75.825L284.394 78.642L287.92 79.351L280.166 89.69L279.224 96.035L280.867 101.204L279.691 104.264L281.809 110.842L285.802 115.311L286.978 115.079L289.562 114.37L289.795 118.13L291.437 120.482L294.489 120.248L296.842 111.553L303.895 102.856L314.476 98.629L321.054 90.4L324.104 91.808H330.449L335.619 86.64L341.965 84.056L342.673 80.062L338.68 76.535L335.154 75.36L333.269 70.423L337.738 67.839L344.792 71.599L347.145 69.015L343.384 66.898L351.38 56.085L349.971 51.383L346.21 51.151L347.618 46.923L352.321 44.805L361.958 36.344L359.142 33.291L348.328 34.232L342.683 39.878L345.978 32.591L342.216 31.649L340.099 35.41L337.048 32.825L328.584 33.766L330.937 30.006L344.802 29.539L341.275 24.837L326.235 22.02L320.125 22.961L320.358 26.022L314.013 23.904L314.245 21.786L309.775 22.727L308.833 25.08L313.536 26.722L308.6 30.249L305.073 26.255L300.137 24.847L299.428 28.607H294.491L292.606 24.613L284.852 23.437L280.624 25.554L280.391 28.372L274.989 27.663L271.695 29.072L271.929 32.365V34.009L265.818 35.185L263 33.308L261.115 36.36L263.934 39.42L269.812 38.711L270.279 40.596L265.81 42.714L261.82 40.807Z" fill="white"/>
<path d="M280.629 77.475L282.038 79.594L281.33 82.178H279.921L278.036 80.059L278.503 78.416L280.629 77.475Z" fill="white"/>
<path d="M339.392 71.598L343.385 72.774L343.151 76.067L338.924 73.949L337.982 72.773L339.392 71.598Z" fill="white"/>
<path d="M335.952 255.415L335.841 256.374L341.821 256.288L342.125 255.397L341.995 254.499L340.274 255.199L335.952 255.415Z" fill="white"/>
<path d="M339.003 263.713L341.632 267.759L345.055 264.785L348.566 264.63L351.488 268.511L353.968 270.146L354.901 268.33L355.731 267.864L355.67 263.871L354.02 259.134L348.955 259.696L342.688 259.195L342.654 260.801L339.003 263.713Z" fill="white"/>
<path d="M396.417 280.543L396.021 282.246L397.212 282.894L398.355 282.039L397.958 280.284L396.417 280.543Z" fill="white"/>
<path d="M400.004 285.106L399.95 286.308L403.874 286.506L403.822 285.15L400.004 285.106Z" fill="white"/>
<path d="M422.237 185.622L422.141 186.772L426.144 188.786L428.055 189.52L427.052 190.575L424.822 190.802L424.503 191.812L425.274 193.55L427.772 194.88L428.862 194.976L429 191.995L430.635 190.023L426.175 184.751L426.764 182.962L427.81 182.919L429.401 184.198L430.403 183.697L430.722 181.907L434.454 182.441L435.588 179.202L433.635 180.577L427.904 180.437L424.178 182.366L422.237 185.622Z" fill="white"/>
<path d="M430.923 196.851L432.331 196.894L432.92 197.767H434.97L436.333 197.266L436.792 197.819L435.885 199.011L431.883 199.15L431.155 198.191L430.385 197.733L430.923 196.851Z" fill="white"/>
<path d="M152.689 249.519L157.815 253.271L162.984 246.848L162.103 245.517L160.339 245.455V241.694L159.017 240.89L155.015 242.082L156.545 245.608L152.689 249.519Z" fill="white"/>
<path d="M337.429 260.765L338.64 263.16L342.036 260.238L342.071 259.339L338.068 258.76L337.429 260.765Z" fill="white"/>
<path d="M230.632 269.063L236.873 274.715L234.392 277.585L234.193 279.288L237.452 282.65L237.374 285.882L231.704 288.042L228.307 283.452L229.033 277.937L227.581 273.832L230.632 269.063Z" fill="white"/>
<path d="M163.641 247.151L171.628 246.848L173.997 249.665L172.519 249.327L169.675 249.448L165.958 252.94L164.368 256.476L163.322 255.921L163.313 252.049L161.014 250.51L163.641 247.151Z" fill="white"/>
<path d="M412.65 166.225L409.599 168.74H406.504L406.132 170.918L407.55 171.29L408.259 170.235L409.373 171.212L410.264 174.324L416.373 177.177L416.978 176.486L410.781 170.09L411.412 168.924L417.3 168.698L417.896 166.822L414.058 166.933L412.65 166.225Z" fill="#F7D15D"/>
<path d="M201.078 235.568L204.052 235.879L203.698 239.527L203.404 241.446L199.938 241.256L199.324 242.182L198.261 242.105L197.881 240.108L201.537 239.804L201.312 237.731L199.635 237.04L201.078 235.568Z" fill="white"/>
<path d="M413.619 161.419L412.616 162.992L412.694 165.395L414.293 166.215L419.212 166.362L426.066 160.588L426.1 159.309L425.358 158.938L420.405 161.186L413.619 161.419Z" fill="white"/>
<path d="M608.75 272.037L608.509 274.008L614.378 283.87H616.089L628.319 304.331L633.213 304.823L635.658 297.675L631.742 295.211L631.008 291.27L608.75 272.037Z" fill="white"/>
<path d="M666.708 299.3L668.662 301.696L667.391 305.292V305.976H670.278L671.299 296.987L672.233 297.247L673.927 305.459L675.542 305.893L677.072 302.381L675.542 297.073L674.271 294.763L678.264 291.852L677.329 290.564L673.51 293.044H672.489L670.623 290.304L671.22 289.103L674.366 287.564L679.12 289.017L680.564 288.928L684.132 285.593L682.69 284.142L679.378 286.707H677.251L674.027 285.169L671.737 285.255L669.187 289.361L667.571 296.466L666.708 299.3Z" fill="white"/>
<path d="M688.024 283.214L686.408 287.149L688.957 290.486H689.806L690.911 288.263L691.508 287.493L690.403 286.292L688.786 285.695L688.024 283.214Z" fill="white"/>
<path d="M693.038 296.138L689.556 296.908L688.535 298.023L689.382 299.476L691.673 298.621L693.115 297.766L695.241 299.478L696.176 298.707L694.483 296.65L693.038 296.138Z" fill="white"/>
<path d="M635.278 307.263L632.901 308.888L633.411 310.252L640.975 311.964L644.795 312.648L646.41 314.36L650.741 314.705L652.781 316.416L654.648 315.984L656.35 314.445L653.204 312.993L650.489 310.685L643.436 308.972L635.278 307.263Z" fill="white"/>
<path d="M660.001 314.704L658.136 315.733L659.24 316.934L661.955 315.907L660.001 314.704Z" fill="white"/>
<path d="M663.224 313.935L663.562 315.56L665.516 316.07L666.277 315.128L665.429 313.84L663.224 313.935Z" fill="white"/>
<path d="M667.901 318.214L665.524 318.561L667.65 320.359H669.344L667.901 318.214Z" fill="white"/>
<path d="M668.575 315.388L668.064 316.415L671.885 317.011L674.859 315.3L673.165 314.789L670.45 315.56L669.429 314.704L668.575 315.388Z" fill="white"/>
<path d="M681.066 315.992L676.65 319.675L677.073 320.617L678.939 320.272L681.144 318.213L685.475 317.616L684.627 316.164L681.066 315.992Z" fill="white"/>
<path d="M703.359 290.855L699.755 291.261L697.44 292.954L698.399 294.892L702.324 295.618V296.345L699.844 298.36L701.045 302.552L702.246 302.63L703.283 298.515H705.202L706.008 302.542L715.369 310.288L715.61 316.339L718.808 319.806L720.25 319.729L720.569 298.36L715.131 294.575L710.006 298.042L708.163 299.174L705.12 297.237L705.042 291.109L703.359 290.855Z" fill="white"/>
<path d="M659.922 277.941L657.925 285.444L647.094 289.1L643.853 285.296L642.28 285.729L645.219 297.069L649.617 297.562L655.486 299.784V302.006L658.174 301.513L662.09 296.093V291.658L664.294 287.223L666.739 287.714L663.801 281.551L663.352 277.583L659.922 277.941Z" fill="white"/>
<path d="M364.148 141.494L363.362 146.681L356.387 149.241H354.164L352.582 148.126V147.166L356.074 144.928L355.123 143.008L355.279 140.294L358.297 140.449L359.68 137.199L359.497 140.086L361.841 141.944L364.148 141.494Z" fill="white"/>
<path d="M455.611 203.308L454.246 207.656L456.017 212.869L458.048 205.253V203.62L455.611 203.308Z" fill="white"/>
<path d="M564.233 268.097L568.191 266.159L570.543 257.654L570.439 247.213L583.907 232.673V229.226L586.681 228.145L586.577 224.161L583.586 218.344L585.298 215.223L589.04 218.672L593.848 218.888V220.826L592.353 222.442L592.671 223.305L595.238 223.409L595.774 226.313H596.526L598.454 222.864L599.412 213.822L602.619 211.557L602.723 208.437L601.444 205.956L599.413 205.852L591.462 211.108L591.962 214.488L586.378 214.469L584.408 212.059L583.336 212.197L583.699 215.551L571.624 214.688L564.139 211.351L563.742 207.245L558.754 204.151L558.694 197.78L555.271 193.864L547.404 194.616L548.259 198.04L552.113 201.16L545.448 214.801L540.988 215.138L540.254 216.782L544.646 220.844L544.43 224.949L539.944 224.88L539.46 226.92L543.187 226.756L543.291 228.372L540.62 229.772L542.331 233.004L545.643 234.084L547.674 232.58L548.633 229.892L549.81 229.357L551.202 230.755L550.778 234.204L549.818 235.821L550.035 238.621L564.233 268.097Z" fill="white"/>
<path d="M472.026 192.046L470.678 198.71L465.093 203.36L465.447 205.555L470.902 205.926L479.59 212.996L484.447 212.858L484.577 211.224L486.357 209.314L488.847 210.723L489.176 210.411L484.361 204.006L482.079 203.867L479.046 199.969L479.65 197.101L480.576 196.98L480.895 195.709L476.763 191.361L472.026 192.046Z" fill="white"/>
<path d="M476.642 185.925L475.585 187.023L475.689 188.761L477.003 190.603L481.661 195.704L480.952 197.744H480.14L479.734 199.784L482.371 203.155L484.801 203.362L489.666 210.094L492.398 210.302L494.524 211.831L494.628 214.893L503.039 219.793H506.178L508.105 218.159L510.535 218.055L511.953 221.323L521.038 222.585L521.308 219.248L524.315 218.159L524.454 216.966L522.059 213.698L516.725 209.411L519.526 206.861L519.328 205.737L515.817 205.193L514.331 193.35L514.158 190.627L504.64 186.986L500.422 187.937L498.062 190.833L495.97 190.694L495.366 191.205L490.706 190.902L484.828 186.614L482.64 184.22L481.637 184.46L479.829 186.526L476.642 185.925Z" fill="white"/>
<path d="M335.494 98.93L333.801 97.971L331.518 99.414L329.556 101.228L329.608 102.241L332.149 102.56L331.993 104.375L331.095 105.283L331.312 105.871L333.853 106.035V108.973L337.509 109.614L339.679 110.843L342.116 110.947L346.302 108.864L349.533 104.593L349.586 101.706L347.623 100.046L345.981 98.654L345.238 99.19L344.123 100.633L342.852 100.469L341.581 99.076L339.939 99.232L337.553 101.211L336.116 102.758L335.321 102.068L335.268 100.356L336.063 99.82L335.494 98.93Z" fill="#F7D15D"/>
<path d="M392.466 167.8L391.931 169.156L392.077 170.634L394.142 173.046L397.392 172.933L404.567 181.267L409.046 182.564L411.692 185.062L412.323 190.757L413.74 189.929L414.969 186.825L414.666 184.596L416.767 184.406L417.071 183.143L411.149 180.309L405.53 174.786L403.292 171.483L402.747 168.346L405.608 167.662L404.874 165.596L403.119 164.118L401.606 164.049L399.498 164.629L397.508 167.41L396.307 168.205L394.449 167.064L392.466 167.8Z" fill="#F7D15D"/>
<path d="M409.901 190.307L408.648 189.633L404.37 190.307L404.516 191.465L408.363 193.402L408.942 194.033L409.954 194.18L409.901 190.307Z" fill="white"/>
<path d="M397.039 181.975L394.75 183.133L395.053 187.602L396.886 187.913L398.26 186.601V182.366L397.039 181.975Z" fill="white"/>
<path d="M190.766 239.207L187.758 239.968V240.808L189.513 241.819H191.354L192.521 240.47L190.766 239.207Z" fill="white"/>
<path d="M458.706 205.66L456.58 213.076L456.484 214.209H459.83L463.573 210.906L463.667 209.653L462.138 208.089L464.877 205.817L464.481 203.708L463.729 203.881L461.447 205.516L458.706 205.66Z" fill="white"/>
<path d="M678.55 184.602L677.14 186.02L677.719 188.016L678.955 188.102L679.785 192.434L680.778 193.514L682.516 191.932L682.667 187.159L680.667 185.034L678.55 184.602Z" fill="white"/>
<path d="M685.921 180.597L683.262 182.753L682.671 185.472L684.483 186.722L687.108 183.972L687.478 180.91L685.921 180.597Z" fill="white"/>
<path d="M682.846 176.442L678.627 181.274V183.596L681.231 183.284L685.316 179.692L688.047 179.19L688.71 179.969L688.725 182.346L689.413 183.596H690.668L692.431 181.438L693.174 178.602L696.726 178.516L700.202 174.35L698.388 167.434L697.558 163.77L699.373 162.274L695.24 156.033L694.296 155.289L692.421 156.033L691.94 158.617V160.7L692.934 161.867L693.262 167.365L690.702 170.529L689.217 169.612L688.058 172.196L687.807 174.608L688.716 176.026L688.137 177.106L686.235 175.524H684.913L683.756 176.19L682.846 176.442Z" fill="white"/>
<path d="M689.962 138.805L688.641 139.973L689.306 142.471L690.464 143.637L690.378 147.467L688.891 148.045L687.733 150.629L691.121 155.288L693.351 154.536L693.766 153.369L691.37 151.208L692.857 149.289L694.429 149.539L697.859 151.844L698.229 149.26L699.859 146.281L702.14 143.969L699.671 142.844L698.727 141.043L697.491 141.873L696.42 143.204L694.104 142.703L691.708 141.121L689.962 138.805Z" fill="white"/>
<path d="M702.434 136.221L700.117 139.471L700.281 141.053L701.439 140.551L704.162 137.137L702.434 136.221Z" fill="white"/>
<path d="M705.494 131.475L704.665 133.723L704.751 135.219L706.16 134.301L707.482 131.639V130.645L705.494 131.475Z" fill="white"/>
<path d="M460.375 279.774L462.675 284.258L459.916 290.041L459.555 291.795L473.325 300.311L477.596 293.603L475.435 291.849L475.392 283.014L478.097 280.058L473.784 281.493L470.525 281.537L465.425 277.232L463.817 276.54L460.837 276.816L460.311 277.699L460.375 279.774Z" fill="white"/>
<path d="M534.696 169.725L534.428 171.913L534.644 173.263L542.165 175.786L535.561 178.448L534.81 177.825L533.383 178.742L533.451 179.243L534.212 179.589L538.847 179.71L541.198 179.001L544.216 175.198L547.992 175.854L552.549 169.543L540.361 167.883L538.675 171.971L536.548 169.69L534.696 169.725Z" fill="white"/>
<path d="M624.309 256.391L627.844 260.167L634.42 255.292L634.999 247.6L631.603 249.943L629.839 248.958L627.443 248.638L626.102 247.697L625.454 247.732L623.7 250.61L623.985 251.942L625.766 252.936L625.55 255.641L624.309 256.391Z" fill="white"/>
<path d="M483.592 318.422L483.988 319.743L485.699 320.012L486.355 318.292L483.592 318.422Z" fill="white"/>
<path d="M656.984 165.456L658.574 166.122L659.058 171.688L662.213 171.871L665.187 168.388L664.158 167.472L664.279 163.738L667.01 160.435L665.618 157.929L666.526 156.89L667.027 154.298L665.445 153.579L664.095 154.263L662.427 159.327L659.73 159.095L656.61 162.777L656.984 165.456Z" fill="white"/>
<path d="M665.679 168.852L671.021 173.208L671.93 177.428L671.747 179.692L669.137 182.631L666.889 182.751L664.338 177.245L663.37 174.616L664.398 173.821L664.156 172.722L662.885 172.153L665.679 168.852Z" fill="white"/>
<path d="M488.433 211.183L486.488 210.127L485.139 211.483L485.285 214.198L488.424 215.399L488.433 211.183Z" fill="white"/>
<path d="M482.728 160.572L486.272 159.059L490.231 158.92L490.507 164.971H488.19L486.418 167.859L488.735 171.706L492.149 173.634L492.46 175.839L493.715 175.423L494.872 174.048L496.782 174.464L497.742 176.392H500.197V173.919L498.693 169.519L498.009 165.95L502.373 164.021L508.242 164.98L511.926 168.689L520.249 167.868L524.893 174.465L530.348 174.739L531.852 172.267L533.762 171.851L534.036 169.103L536.898 168.964L538.401 170.753L539.906 167.183L552.863 168.972L555.042 166.085L551.359 161.548L556.269 150.829L560.227 151.104L562.958 144.51L557.503 143.956L554.365 140.932L545.721 141.934L534.587 131.172L530.661 134.654L518.759 129.252L504.158 136.4L503.753 141.483L507.166 145.468L500.511 149.228L491.875 149.038L490.068 146.385L483.299 146.012L476.885 150.135L476.745 155.773L482.728 160.572Z" fill="white"/>
<path d="M619.978 224.806L617.886 225.868L616.149 230.933L619.053 234.632L618.568 238.722L619.053 238.918L623.885 236.576L630.367 243.819L630.21 248.382L631.62 249.144L635.102 246.317L634.817 244.079L624.764 234.527L624.859 233.066L626.113 232.193L625.239 229.755L621.081 229.071L619.978 224.806Z" fill="white"/>
<path d="M456.372 198.45L456.425 200.136L455.717 202.696L458.155 202.904L458.311 199.273L456.372 198.45Z" fill="white"/>
<path d="M227.979 251.689L227.365 252.995L228.359 254.066L229.655 253.375L227.979 251.689Z" fill="white"/>
<path d="M572.497 263.808L572.714 266.159L572.93 267.871L571.659 268.087L572.299 271.935L574.208 273.005L577.174 271.294L576.327 267.24L576.543 265.745L573.787 263.186L572.497 263.808Z" fill="white"/>
<path d="M347.431 273.436L356.922 279.781L356.695 274.976L353.826 271.596L351.025 269.115L347.431 273.436Z" fill="white"/>
<path d="M440.129 365.238L442.766 363.206L444.011 363.259L445.514 365.134L445.359 367.011L442.826 367.945V368.673L440.034 368.517L439.36 366.486L440.129 365.238Z" fill="white"/>
<path d="M421.373 133.645L419.227 134.008L419.4 136.033L422.755 136.283L424.025 137.325L424.358 139.135L425.392 140.578L428.461 140.448L431.399 136.705L431.227 134.483L425.694 133.616L421.373 133.645Z" fill="white"/>
<path d="M389.657 155.991L390.417 156.67L391.297 156.753L391.491 155.019L391.238 154.045L390.014 154.628L389.657 155.991Z" fill="white"/>
<path d="M432.056 128.373L425.694 127.336L424.608 130.159L422.775 130.707L421.816 129.534L420.854 127.723L419.816 128.485L419.227 131.617V133.325L421.469 132.95L426.134 133.033L431.751 134.077L434 133.42L433.87 130.896L432.056 128.373Z" fill="white"/>
<path d="M399.191 211.927L400.541 211.702L400.938 208.59H401.612L404.37 204.062L411.174 206.041L413.03 208.928L419.72 211.99L423.202 210.52L422.864 209.049L421.343 207.58L421.516 206.559L423.989 204.466H428.883L430.739 206.955L434.673 207.525L435.184 239.414L432.262 239.302L414.611 230.121L412.701 231.202L405.448 229.388L403.477 226.785L400.607 226.388L399.149 223.785L399.191 211.927Z" fill="white"/>
<path d="M371.738 198.312H361.756L359.802 202.651L355.298 204.821L351.579 214.883L344.336 219.224L334.162 235.985L344.145 235.786L344.534 230.859H347.075V224.151H355.885L356.081 215.472L364.501 213.5L368.027 207.777L373.507 207.579L371.738 198.312Z" fill="white"/>
<path d="M434.373 159.785L437.054 163.908L436.828 166.242L437.788 166.285L440.06 162.438L437.329 159.049L435.782 158.409L434.373 159.785Z" fill="white"/>
<path d="M418.913 175.086L417.647 176.875L418.009 177.974L419.513 178.249L420.697 176.642L418.913 175.086Z" fill="white"/>
<path d="M496.221 319.883L494.379 324.257L491.225 329.823L485.702 330.219L483.333 333.002L483.73 341.49L480.307 345.467L480.703 352.228L483.6 355.539L487.023 355.143L490.446 352.619L489.659 348.642L497.553 334.985L495.971 333.265L497.553 329.953L499.264 330.479L499.79 329.157L498.208 322.397L497.284 319.613L496.221 319.883Z" fill="white"/>
<path d="M425.876 177.333L422.964 178.292L423.103 180.765L423.786 181.638L427.244 180.032L425.876 177.333Z" fill="white"/>
<path d="M346.817 253.254L349.479 251.431L364.278 251.344L360.855 227.538L364.762 227.426L383.665 241.854L386.206 242.216L385.247 250.237L373.361 251.317L364.19 258.164L362.521 262.85L356.151 263.119L354.526 258.442L349.642 258.788L349.831 257.258L346.817 253.254Z" fill="white"/>
<path d="M614.766 260.005L612.37 256.167L614.107 253.729L612.465 250.711L610.917 250.417L610.623 245.353L608.307 240.867L607.632 241.938L606.085 244.566L604.148 244.86L603.18 243.589L602.696 240.175L601.243 237.445L595.33 231.869L596.783 230.91L597.053 226.873L599.213 223.242L600.148 214.21L603.277 212.074L603.38 208.781L605.257 209.403L608.213 213.682L606.019 218.383L607.498 222.074L611.153 223.509L611.819 227.53L616.729 228.291L615.372 230.634L609.184 233.072L608.51 237.065L613.057 242.909L613.246 246.029L612.184 247.101L612.278 248.078L615.667 253.049L615.763 258.209L614.766 260.005Z" fill="white"/>
<path d="M566.671 144.624L571.701 137.951L577.744 140.743L581.849 141.841L586.879 137.226L583.465 134.709L585.713 131.537L592.42 133.906L594.745 137.718L598.944 137.83L601.14 136.196L605.661 136.014L606.646 137.692L614.158 138.072L618.912 133.223L625.49 133.913L625.11 140.517L627.989 141.173L631.524 139.567L635.267 141.417L635.179 142.352L632.465 142.43L629.638 148.36L627.443 148.576L618.903 159.736L610.18 163.583L604.725 164.007L600.196 161.084L594.405 164.179L588.7 162.408L587.083 158.267L576.278 157.505L570.746 148.128L568.058 147.954L566.671 144.624Z" fill="white"/>
<path d="M334.231 236.675L336.116 239.138L335.727 249.788L338.467 247.816L340.419 247.419L343.16 248.404L346.288 252.744L349.227 250.773L363.515 250.574L359.989 226.708L363.775 226.69L356.721 221.288L356.73 224.798L347.8 224.808L347.757 231.506L345.19 231.497L344.862 236.441L334.231 236.675Z" fill="white"/>
<path d="M410.048 196.748L408.605 197.042L408.657 198.642L409.954 199.075L410.533 198.591L410.048 196.748Z" fill="white"/>
<path d="M514.123 342.417L512.811 344.138L513.07 345.995L515.838 343.739L514.123 342.417Z" fill="white"/>
<path d="M551.629 274.795L551.889 277.051L553.331 277.578L553.591 275.589L551.629 274.795Z" fill="white"/>
<path d="M553.471 279.565L553.341 282.349L554.396 282.874L555.321 281.018L553.471 279.565Z" fill="white"/>
<path d="M553.739 285.004L552.814 285.929L553.87 286.854L555.183 285.929L553.739 285.004Z" fill="white"/>
<path d="M457.201 325.483L459.89 328.293L459.837 331.89L460.357 333.404L463.927 329.549L463.513 324.65L461.601 323.19L459.9 314.587L456.951 314.483L458.291 320.679L457.201 325.483Z" fill="white"/>
<path d="M103.08 192.391L107.255 205.537L105.31 206.626L105.526 209.236L109.2 212.063V217.292L113.738 221.648L111.793 208.801L109.2 200.304L109.848 194.427L112.009 194.644L112.874 196.606L112.009 201.611L123.246 223.601V231.442L132.323 242.108L142.263 246.681L146.369 244.285L152.204 249.074L155.662 245.591L154.149 241.666L159.119 240.145L160.632 241.018L162.145 239.497H164.522L168.844 231.873L166.683 229.911L158.255 231.873L156.31 237.535L151.339 238.409L145.505 236.013L142.912 227.742L144.874 217.308L140.863 214.81L138.953 204.79L137.354 204.107L134.432 207.072L131.078 205.283L129.765 198.601L116.479 197.208L109.616 192.048L103.08 192.391Z" fill="white"/>
<path d="M617.592 270.205L619.328 274.103L619.719 279.167L622.043 282.771L627.139 285.854L628.139 285.063L629.603 284.775L629.391 282.865L627.55 278.387L624.853 272.656L624.626 273.659L621.376 273.513L619.042 270.159L617.592 270.205Z" fill="white"/>
<path d="M644.76 285.305L647.37 288.323L657.382 284.856L659.361 277.213L663.821 276.894L667.901 273.938L662.611 270.084L661.4 267.965L658.79 272.78L659.749 275.546L658.158 277.856L655.159 277.085L647.889 282.418L648.077 285.504L644.76 285.305Z" fill="white"/>
<path d="M452.024 354.768L454.35 356.696L459.829 353.361L460.71 348.408V340.23L469.501 333.039L471.007 333.092L476.329 327.985L475.501 317.456L461.691 319.199L462.21 322.537L464.23 324.294L464.8 330.025L460.044 334.667L458.903 332.064L459.11 328.624L456.37 325.651L449.645 328.781L455.903 331.963L456.112 341.237L451.971 347.383L452.024 354.768Z" fill="white"/>
<path d="M413.454 362.272L416.351 362.48L418.053 364.2L422.09 364.252L423.074 352.79V345.287L425.659 344.767L426.645 336.9L433.214 336.694L435.537 334.767L431.604 334.611L426.279 335.337L420.54 333.255H404.41L404.825 337.835L410.201 345.753L409.267 349.815L409.32 351.951L413.454 362.272Z" fill="white"/>
<path d="M767.939 360.985L767.636 362.532L771.619 368.091L773.764 369.017L774.067 366.856L767.939 360.985Z" fill="white"/>
<path d="M382.629 258.579L384.833 258.526L386.821 255.545L390.157 254.948L393.71 257.118L401.29 257.334L407.151 254.948L409.355 253.054L409.519 250.565L413.607 246.442L414.687 237.338L411.999 231.702L405.119 230.025L389.196 242.438L386.94 242.221L385.971 250.838L377.847 251.651L382.629 258.579Z" fill="white"/>
<path d="M383.217 273.594L386.606 273.758L390.694 278.315L392.681 278.859L394.239 278.098L396.606 277.77L397.411 274.467L400.636 272.35L404.128 272.187L410.524 260.421L410.42 257.768L407.465 255.495L401.552 258.098L393.643 257.987L389.873 255.601L387.185 256.197L385.785 258.635L385.681 265.515L383.425 268.713L383.217 273.594Z" fill="white"/>
<path d="M172.449 250.029L174.342 250.41L174.403 254.291L172.199 260.584L166.261 259.996L164.938 256.962L166.702 253.28L170.047 250.168L172.449 250.029Z" fill="white"/>
<path d="M390.582 142.981L386.667 144.909L387.496 145.661L387.584 147.589L386.755 147.425L385.838 145.999L383.65 149.466L387.013 150.165L388.266 151.488L388.932 151.505L389.372 148.515L391.489 147.624L390.582 142.981Z" fill="#F7D15D"/>
<path d="M429.8 85.818L431.547 84.539L431.39 83.104L430.284 82.463L430.441 80.709H431.391V79.749L427.268 78.635L421.087 79.275L420.456 81.989L419.028 81.512L418.077 79.913L415.06 80.068L414.74 83.101L413.314 83.742L412.519 82.142L406.174 87.251L407.445 88.687L405.067 89.802L399.674 100.503L397.773 101.782L397.928 102.741L399.828 103.7L399.353 105.774L396.18 105.61L395.228 104.495L393.171 106.89L391.9 107.849L391.58 110.089L390.475 110.729L387.621 111.369L386.195 115.848L387.146 123.196L388.252 126.55L389.523 127.829L392.376 127.673L396.5 123.679L398.081 120.966L398.559 124.958L401.256 120.169L401.41 106.745L403.605 105.362L404.262 97.954L410.917 88.368L414.09 87.253L415.517 85.498L420.271 86.613L422.648 88.048L423.444 84.056L427.412 81.66L429.8 85.818Z" fill="#F7D15D"/>
<path d="M406.289 44.171L404.863 42.736L401.699 44.275H395.89L394.973 47.664L398.233 50.542L399.658 50.334L401.698 46.843L403.427 48.078L402.198 50.542L401.584 54.138L403.011 56.394L406.071 51.259L410.05 46.427L408.519 45.097L406.289 44.171Z" fill="#F7D15D"/>
<path d="M408.017 38.009L405.467 40.368L406.996 42.727H409.745L410.869 44.266L414.232 46.012L418.103 43.756L420.757 41.5L419.841 39.65L417.187 38.111L415.249 39.857L413.928 38.213L412.907 38.317L411.585 41.195L409.649 39.241L409.441 37.91L408.017 38.009Z" fill="#F7D15D"/>
<path d="M413.826 48.588L411.786 50.439L410.057 51.771L410.869 53.206L412.505 53.717L415.157 52.481L416.386 50.942L415.262 49.092L413.826 48.588Z" fill="#F7D15D"/>
<path d="M564.415 207.198L564.812 210.889L571.795 214.051L582.988 214.881L582.565 212.176L575.087 210.118L568.741 206.341L564.415 207.198Z" fill="white"/>
<path d="M773.454 414.138L774.371 424.337L773.143 428.971L768.543 432.367L768.848 436.387V440.709L770.076 442.257L782.653 431.443V428.971H779.585L775.287 414.45L773.454 414.138Z" fill="white"/>
<path d="M764.256 436.388L766.711 441.021L759.959 447.513L759.346 450.909L754.746 451.522L747.079 458.626L740.025 455.23L739.412 452.756L752.291 447.198L764.256 436.388Z" fill="white"/>
<path d="M501.477 240.288L507.865 236.605L508.998 231.203L507.599 230.399L508.178 224.607L509.397 223.898L510.703 225.947L518.474 230.009V232.267L509.061 246.121L504.73 246.268L501.477 240.288Z" fill="white"/>
<path d="M174.913 265.157L173.651 269.098L177.818 270.177L180.402 270.689L180.843 267.637L183.618 266.237L186.081 267.508L187.049 269.055L188.224 268.917L189.149 266.107L186.071 264.836L183.737 263.565L181.404 265.155L178.629 266.555L175.794 265.414L174.913 265.157Z" fill="white"/>
<path d="M178.751 299.655L177.074 301.35L177.187 304.053L191.83 330.747L207.035 340.549L209.386 336.608L209.948 327.939L208.72 322.537L204.579 315.553L202.116 316.339L201.001 317.575L196.083 311.939L197.311 305.292L203.016 301.575L202.567 298.083L196.758 297.857L193.741 292.793L192.064 292.231L192.177 295.275L184.691 304.17L179.098 302.821L178.751 299.655Z" fill="white"/>
<path d="M721.365 298.592L721.046 319.718L724.09 319.554L728.092 314.878L731.453 315.042L733.614 316.979L734.332 322.943L741.214 326.574L742.977 325.926V323.747L737.454 319.148L734.731 312.855L736.892 311.808L735.291 308.342L732.094 308.264L731.289 304.555L722.81 298.833L721.365 298.592Z" fill="white"/>
<path d="M747.409 304.417L746.59 304.608L746.089 306.83L744.516 307.851L739.787 308.681L739.977 310.46L744.956 310.211L748.111 308.239L747.923 304.807L747.409 304.417Z" fill="white"/>
<path d="M745.326 299.206L744.564 300.286L748.723 303.969L749.292 306.13L750.425 306L750.555 303.779L749.292 302.639L745.326 299.206Z" fill="white"/>
<path d="M666.57 254.715L665.827 256.133L665.413 257.879L661.281 263.125L661.531 264.206L663.268 263.955L668.636 257.956L666.57 254.715Z" fill="white"/>
<path d="M673.26 252.718L673.172 257.049L674.745 258.631L675.323 261.708L676.897 262.045L677.639 260.126L676.403 259.21L676.075 253.799L673.26 252.718Z" fill="white"/>
<path d="M677.729 254.387L677.642 258.216L678.55 259.711L680.121 257.879L679.707 254.551L677.729 254.387Z" fill="white"/>
<path d="M678.714 251.05L680.286 253.133L681.029 255.13H682.438L682.188 251.715L680.615 250.635L678.714 251.05Z" fill="white"/>
<path d="M681.775 258.881L682.103 261.379L679.207 263.713L676.811 263.964L674.251 266.713L674.338 267.965L676.734 267.214L678.385 266.134L679.793 269.712L682.273 271.459L683.267 271.121L684.174 270.041L682.195 268.044L683.354 267.128L684.676 268.208L685.582 266.713L684.676 264.88L684.512 260.8L681.775 258.881Z" fill="white"/>
<path d="M668.307 233.485L666.077 235.066L665.827 240.063L669.304 246.805L670.462 247.72L671.947 246.717L674.507 247.132L674.999 249.38L676.9 249.544L677.808 248.299L676.65 246.717L675.241 245.386L672.267 245.059L670.694 242.474L672.51 239.725L672.673 237.314L671.437 234.237L668.307 233.485Z" fill="white"/>
<path d="M669.465 248.388L670.122 250.723L671.28 251.475L672.11 250.394L670.787 248.562L669.465 248.388Z" fill="white"/>
<path d="M522.871 213.491L525.119 216.828L524.903 218.548L521.912 219.734L521.695 222.535H525.119L526.294 221.566H532.813L538.691 226.736L539.443 224.255H543.826L543.93 221.135L539.444 216.83L540.404 214.461L545.002 214.143L551.201 201.219L547.776 198.531L546.498 194.01L554.831 193.258L549.914 186.258L547.294 185.549L546.224 186.846L545.419 186.907L540.5 190.027L542.108 192.723L540.293 194.66L538.044 202.95L532.486 206.503L531.734 210.385L522.871 213.491Z" fill="white"/>
<path d="M426.342 148.593L427.075 149.941L427.249 151.376L426.645 152.768L425.262 155.432L424.095 155.958L422.581 155.301L421.673 155.344L419.469 156.174L416.963 155.432L412.901 152.553L408.923 150.418L407.323 147.98L407.02 142.23L410.132 139.525L414.194 138.175L415.522 138.037L415.837 139.044L417.562 139.736L422.328 139.826L423.798 139.783L426.219 143.491L425.615 145.012L425.874 146.801L426.342 148.593Z" fill="white"/>
<path d="M218.53 240.477L216.248 239.707L214.415 240.856L215.332 241.927L218.453 242.385L218.53 240.477Z" fill="white"/>
<path d="M356.732 180.125L356.196 187.603L354.666 188.987L354.822 189.833L355.893 191.605L355.202 193.765L356.351 194.155L359.031 193.843L358.876 191.683L360.632 181.663L360.25 180.28L356.732 180.125Z" fill="white"/>
<path d="M337.067 201.89L336.133 203.075L337.067 204.26L338.475 203.551L337.067 201.89Z" fill="white"/>
<path d="M306.345 185.122L305.17 186.306L307.277 187.491L307.511 185.842L306.345 185.122Z" fill="white"/>
<path d="M312.681 184.413L311.273 185.354L312.448 186.295L314.324 185.819L312.681 184.413Z" fill="white"/>
<path d="M313.615 187.723L312.915 189.615L313.85 190.8L315.025 189.859L313.615 187.723Z" fill="white"/>
<path d="M319.243 191.501L318.776 192.685L319.477 193.394L321.352 192.21L319.243 191.501Z" fill="white"/>
<path d="M236.432 342.867L238.334 344.941L238.109 349.333L243.589 348.995L247.73 354.294L247.393 359.023L244.712 363.077L239.233 363.302L239.008 361.046L240.572 357.328L235.204 353.948H230.735L227.381 350.344L229.819 343.376L236.432 342.867Z" fill="white"/>
<path d="M496.506 221.427L496.057 224.894L497.388 225.906L498.597 225.794L499.047 221.429L498 220.677L496.506 221.427Z" fill="white"/>
<path d="M426.964 159.69L426.738 160.969L421.733 165.135L425.917 171.272L428.599 173.149H433.422L435.013 171.818L437.148 171.542L438.739 172.501L441.557 169.294L441.012 167.687L438.151 166.953L436.198 166.858L436.292 164.109L433.699 160.029L426.964 159.69Z" fill="white"/>
<path d="M421.234 165.688L419.462 167.02H418.599L418.011 168.852L420.103 171.282L420.242 173.21L419.36 174.456L422.428 177.653L425.745 176.641L425.471 171.92L421.234 165.688Z" fill="white"/>
<path d="M691.292 60.569L692.814 65.825L695.857 66.698L698.899 61.884L697.162 58.599L697.81 55.754H702.373L701.283 57.942L701.717 65.825L695.198 82.024L695.846 85.525L695.63 91.437L707.791 109.166L710.178 109.823L710.394 95.38L712.78 93.192L710.17 87.504L712.341 85.092L707.561 78.746L704.95 78.963L704.085 68.46L710.819 66.705L711.251 63.637L714.729 62.764L716.682 64.52L719.068 54.889L723.192 47.889L726.451 46.133L729.278 46.35V43.065L724.715 42.192L718.413 36.936L721.457 33.436L718.847 27.523L721.016 25.336L723.626 28.836L730.145 31.247L737.311 31.904L738.184 28.843L734.494 25.126L738.617 19.438L729.272 16.153L726.886 20.967L723.843 17.026L706.685 11.113L690.39 13.957L688.003 15.271V16.584L691.479 18.34L691.045 22.497L684.744 19.869L670.846 25.342L668.458 20.311H658.897L654.548 24.91L639.127 21.409L625.012 24.253L623.275 28.628L625.445 29.284L625.229 32.569L611.544 34.098L612.417 38.473L599.813 36.285L602.857 30.597L590.038 29.94L591.127 35.853L587.004 37.824L583.528 34.539L569.412 36.951L563.984 41.982L563.767 45.042L560.291 45.258L559.858 41.758L570.94 32.129V25.559L563.774 23.588L554.429 26.649L550.522 22.707H548.785L546.614 27.081L548.352 29.052L535.964 35.839L525.322 43.939L518.803 52.911V56.628L525.752 59.473L522.277 62.1L514.895 59.473L511.851 62.1L507.288 56.844L506.415 58.816L511.411 74.574L512.716 75.014L516.194 73.26L517.93 74.573V77.417L514.671 76.104L512.716 77.633L514.024 80.477L512.934 87.92L506.2 88.577L505.768 86.165L509.675 83.754L510.548 77.184L506.199 71.496L504.678 61.65L497.73 60.552L497.082 64.052L498.387 65.806L495.562 68.218L496.651 74.788L500.775 76.543L501.648 81.357L497.515 78.73L486.874 76.758L485.568 80.26L477.095 83.32L475.79 81.133L464.708 87.26L464.492 91.418L460.144 92.075L461.45 89.015V85.954L457.101 84.425L454.275 85.523L456.661 90.122L458.398 93.182V95.594L455.138 94.938L454.491 94.281L451.231 97.782L452.968 100.843L445.585 100.626L447.972 103.695L447.325 105.008H443.418L440.591 103.037L439.944 97.565L435.381 95.81V93.623L444.942 95.595L450.155 96.035L452.325 92.75L450.371 89.249L436.472 83.777L431.674 84.969L430.032 86.379L430.543 89.619L432.582 89.973L432.106 95.074L438.399 109.855L433.851 117.064L433.539 118.689L435.848 120.314L433.764 121.689L432.381 121.715L432.641 128.068L434.551 130.774L434.577 133.401L437.023 133.626L440.764 135.052L444.723 140.498L444.768 141.933L443.48 144.138L446.436 143.974L449.314 144.804L453.205 150.31L462.782 151.183L462.367 157.735L459.066 160.562L459.749 161.667L456.489 165.169L455.625 168.453L457.579 171.298L463.88 173.485L466.491 171.955L483.218 178.301L483.866 176.545L480.39 173.262V169.104L478.219 168.447L478.653 164.947L482.129 160.789L475.898 156.122L476.33 149.63L482.995 145.247L490.817 145.688L492.123 148.1L500.163 148.54L506.032 145.256L502.988 141.971L503.635 135.842L518.84 128.4L530.535 133.672L534.442 130.172L545.956 141.114L554.644 140.241L557.688 143.301L565.943 144.174L571.372 136.733L578.321 139.801L582.011 140.459L585.703 137.174L582.443 134.986L585.27 130.612L593.309 133.24L595.045 136.741L598.522 136.957L600.692 135.428L606.561 135.211L607.208 136.741L613.941 137.181L618.503 132.367L627.848 133.465L630.675 132.367L631.539 127.111L628.713 120.765L631.539 118.354H640.443L648.914 128.423L659.771 134.552H663.031L663.463 131.925L667.37 129.513L667.803 143.741L664.328 143.957V147.457L666.281 149.869L665.918 152.998L667.361 153.596L668.235 151.408L669.541 151.849L670.405 152.722L674.312 151.849L678.218 140.464L678.652 126.235L673.656 114.85L667.355 107.193L664.311 107.633V110.045L656.929 107.2L659.755 101.072L662.142 84.873L672.134 81.813L676.913 78.753H682.126L680.814 80.507L682.12 82.695L686.683 77.881L689.292 78.096L688.86 75.252L684.728 74.379L687.555 64.092L691.292 60.569Z" fill="white"/>
<path d="M419.341 136.697L418.045 139.093L422.71 139.136H423.66L423.481 137.784L422.753 136.93L419.341 136.697Z" fill="white"/>
<path d="M710.37 111.655L709.299 112.987L709.386 115.07L710.378 114.984L712.029 112.071L710.37 111.655Z" fill="white"/>
<path d="M746.026 30.712L743.986 32.043L743.503 33.737L744.463 34.826L746.623 34.1L748.784 34.826L749.985 35.189L749.864 31.195L746.026 30.712Z" fill="white"/>
<path d="M457.772 31.057L459.259 31.655L458.213 33.453V36.003L455.983 37.353H453.606L452.266 35.702L452.412 33.904L453.458 32.554H455.542L457.772 31.057Z" fill="white"/>
<path d="M463.425 29.407V31.205L464.911 32.407L466.994 32.261L468.782 30.61V29.408H467.148L465.808 29.857L464.762 28.656L463.425 29.407Z" fill="white"/>
<path d="M471.914 29.561L472.96 31.809L475.044 31.956L476.53 31.36L475.788 29.259L473.851 28.808L471.914 29.561Z" fill="white"/>
<path d="M480.394 26.563L478.759 26.26L477.272 27.764L478.016 29.113L478.465 31.214L480.402 29.718L480.851 28.068L480.394 26.563Z" fill="white"/>
<path d="M489.47 42.46L489.02 44.56L485.596 47.56L478.302 49.211L472.345 59.108L471.299 61.961L477.256 63.466L478.145 59.869L479.935 54.32L484.55 51.917L488.422 48.917L491.248 47.716H492.735V43.67L489.47 42.46Z" fill="white"/>
<path d="M470.272 64.355L474.291 64.805L475.633 69.454L479.056 73.051L477.863 75.453H475.78L473.843 73.205L469.53 73.059L467.741 70.656V69.005L470.423 68.253L470.272 64.355Z" fill="white"/>
<path d="M533.088 13.218L531.15 12.015H528.92L528.472 13.365L526.095 14.715L524.305 15.311L524.011 17.109L528.178 17.412L533.088 13.218Z" fill="white"/>
<path d="M537.696 13.666L536.649 15.913L534.566 15.767L531.29 18.169L530.4 21.169H532.483L533.676 19.216L536.502 21.317L539.183 20.115L541.12 18.465L540.376 15.914L539.33 14.116L537.696 13.666Z" fill="white"/>
<path d="M542.017 15.317L543.063 19.518L544.697 23.415L546.487 20.269L549.91 19.517V17.269L547.681 15.618L542.017 15.317Z" fill="white"/>
<path d="M623.686 8.593L626.012 10.546L627.661 9.86299L628.145 7.123L624.756 4.78099L622.526 6.25L617.098 6.743V9.188L611.374 9.284V13.286L618.064 18.265L619.811 16.994L619.421 13.475L623.691 12.404L622.818 10.744L621.271 9.181L623.686 8.593Z" fill="white"/>
<path d="M629.893 6.24899L631.44 9.181L637.457 8.49699L639.107 6.345L638.718 4.48799L637.068 3.804L635.52 4.98L631.06 5.95799L629.893 6.24899Z" fill="white"/>
<path d="M629.504 17.677L626.494 16.9L624.758 18.757L623.98 21.298L628.051 20.909L631.155 19.345L629.504 17.677Z" fill="white"/>
<path d="M707.464 0.778L704.941 0L702.037 1.07199L700.584 3.22299L702.426 5.66899L707.276 3.51799L708.244 2.446L707.464 0.778Z" fill="white"/>
<path d="M708.389 116.738V120.403L709.548 120.818L710.376 119.486V116.659L708.389 116.738Z" fill="white"/>
<path d="M674.583 103.495L674.507 108.828L681.196 119.158L683.592 128.147L687.811 136.143L689.46 136.723L690.869 135.555L691.526 133.637L685.493 127.059L685.657 123.643L686.979 123.065L687.308 121.068L675.492 104.333L674.583 103.495Z" fill="white"/>
<path d="M721.2 86.925L719.551 87.089L720.544 88.507L722.609 89.925L723.188 89.259L721.2 86.925Z" fill="white"/>
<path d="M724.416 87.929L724.667 89.345L727.227 90.097L727.478 89.095L724.416 87.929Z" fill="white"/>
<path d="M738.462 93.365L739.542 95.302L741.342 95.181L741.703 93.849L738.462 93.365Z" fill="white"/>
<path d="M756.589 96.389L758.031 99.051L759.111 97.842V96.027L756.589 96.389Z" fill="white"/>
<path d="M449.129 291.34L451.558 293.578L451.454 295.974L447.685 296.051V293.405L449.129 291.34Z" fill="white"/>
<path d="M489.045 216.43L495.106 224.873L497.059 226.431L497.933 230.216L507.26 230.95L508.315 231.504L507.269 236.171L501.14 239.784L492.176 242.499L487.396 247.167L481.717 243.855L478.278 246.864L473.487 239.041L470.203 237.537L469.011 235.73V231.814L457.057 217.362L456.606 214.801H460.046L464.23 211.19L464.376 209.382L463.184 208.181L465.579 206.228L470.663 206.531L479.332 213.757L484.449 213.525L484.778 214.788L489.045 216.43Z" fill="white"/>
<path d="M753.019 308.291L754.091 311.272L755.983 313.114L756.553 312.604L756.364 310.632L754.219 308.029L753.019 308.291Z" fill="white"/>
<path d="M758.249 312.733L758.38 314.704L759.58 315.845L760.714 315.145L759.702 313.043L758.249 312.733Z" fill="white"/>
<path d="M759.761 317.627L758.749 318.708L759.82 320.678L761.082 321.059L761.022 319.728L759.761 317.627Z" fill="white"/>
<path d="M762.225 316.485L763.107 318.646L764.809 320.676L765.752 319.155L764.489 316.994L762.225 316.485Z" fill="white"/>
<path d="M766.642 319.726L767.143 322.397L768.346 324.047L769.357 321.955L766.642 319.726Z" fill="white"/>
<path d="M768.025 325.7L767.585 326.46L769.037 328.371L770.049 328.433L769.417 325.951L768.025 325.7Z" fill="white"/>
<path d="M764.809 329.503L763.295 330.203L764.618 332.046L765.751 331.406L764.809 329.503Z" fill="white"/>
<path d="M504.909 307.279L504.384 308.341L505.826 309.533L506.882 308.341L504.909 307.279Z" fill="white"/>
<path d="M512.282 299.328L510.7 300.39L511.886 302.247H513.468L512.282 299.328Z" fill="white"/>
<path d="M512.939 303.969L511.884 305.162L512.67 306.354L514.112 306.623L514.242 304.101L512.939 303.969Z" fill="white"/>
<path d="M435.377 263.444L432.827 261.94L430.502 257.35L430.632 253.079L433.856 250.307L434.011 240.079L436.138 240.141L435.896 234.461L458.198 234.659L461.387 231.444L468.268 242.448L464.498 246.89V253.675L459.899 263.566L458.859 265.866L455.15 260.55L452.442 263.991L449.383 264.825L439.442 263.825L435.109 265.366L435.377 263.444Z" fill="white"/>
<path d="M414.465 87.929L416.158 89.492H419.331L421.077 92.846L421.554 98.594L417.276 101.629V104.662L414.259 108.82L412.513 108.974L410.135 112.968L410.29 116.806L414.414 119.841L414.095 121.595L412.513 123.991L410.136 126.065L410.291 132.937L406.644 134.216L405.373 136.929H403.626L402.677 132.14L398.708 126.056L401.968 120.601L402.193 107.124L404.441 105.888L404.986 98.179L411.391 89.007L414.465 87.929Z" fill="white"/>
<path d="M415.131 127.336L413.307 128.779L414.224 130.897L415.84 129.324L415.131 127.336Z" fill="white"/>
<path d="M627.547 286.114L628.233 286.503L629.781 286.377L629.651 285.21L628.389 285.409L627.547 286.114Z" fill="white"/>
<path d="M411.941 163.485L409.746 164.799L405.649 165.697L406.469 168.065L409.339 168.099L411.985 165.886L411.941 163.485Z" fill="white"/>
<path d="M412.84 159.284L413.437 159.811L413.514 160.709L420.11 160.563L424.985 158.461L424.908 156.326L423.974 156.741L422.634 156.023L421.813 155.988L419.652 156.853L416.714 156.144L412.84 159.284Z" fill="white"/>
<path d="M342.037 268.199L346.921 272.919L350.404 268.692L348.225 265.277L345.225 265.58L342.037 268.199Z" fill="white"/>
<path d="M341.657 257.18L335.865 257.039L336.937 259.642L337.533 258.035L344.804 258.796L345.61 258.768L349.015 258.888L349.136 257.384L346.025 253.651L342.558 248.958L340.406 248.06L338.745 248.484L335.34 250.956L334.564 252.34L334.322 253.723L335.575 254.622L339.76 254.561L342.448 253.833L342.751 255.155L342.51 256.901L341.657 257.18Z" fill="white"/>
<path d="M495.936 260.35L499.713 258.898L501.053 259.702L500.906 263.056L497.424 272.979L478.57 293.169L476.383 291.666L476.236 283.145L479.071 279.885L485.089 278.028L493.913 268.71L496.223 266.652L496.87 263.644L495.936 260.35Z" fill="white"/>
<path d="M237.617 275.124L239.38 276.74L242.111 275.046L244.601 275.124L244.281 276.092L243.235 278.271L243.071 283.692L238.101 285.714L238.343 282.238L235.136 279.247L235.3 277.709L237.617 275.124Z" fill="white"/>
<path d="M458.569 266.428L456.529 267.326L457.176 270.879H459.718L463.166 275.883L460.399 276.237L459.69 277.525L459.621 279.382L451.323 279.236L450.475 277.948L444.675 277.62L434.026 266.658L435.089 266.018L439.606 264.654L449.503 265.408L452.869 264.654L455.104 261.658L458.569 266.428Z" fill="white"/>
<path d="M391.144 288.963L392.137 288.461L392.88 289.065L392.137 290.213L391.238 289.859L391.144 288.963Z" fill="white"/>
<path d="M393.14 285.807L394.636 285.556L395.137 286.507L394.394 287.312L393.651 287.208L393.14 285.807Z" fill="white"/>
<path d="M158.541 253.626L162.603 255.648L162.542 252.441L160.459 251.17L158.541 253.626Z" fill="white"/>
<path d="M456.778 195.589L456.476 197.785L458.913 198.806L458.809 204.892L461.247 204.839L463.685 202.997L464.601 202.842L470.133 198.444L471.247 192.054L460.191 193.179L459.024 195.738L456.778 195.589Z" fill="white"/>
<path d="M451.764 355.392L449.595 355.753L448.66 358.305L450.319 359.818H452.334L454.036 357.372L451.764 355.392Z" fill="white"/>
<path d="M410.204 253.392L410.316 250.84L414.414 246.857L415.513 237.072L412.782 231.851L414.693 230.872L433.191 240.511L433.078 249.967L429.819 252.742V257.617L431.955 261.749H428.185L421.945 267.922L421.78 269.789L417.175 269.728L417.114 270.574L414.486 270.229L412.688 266.832L411.337 266.166L411.511 265.129L413.204 263.832V257.766L410.861 257.403L408.035 255.301L410.204 253.392Z" fill="white"/>
<path d="M377.728 275.219L380.044 273.863L379.991 264.917L378.487 262.479L377.52 263.291L377.728 275.219Z" fill="white"/>
<path d="M615.276 231.324L618.076 234.928V239.312L619.044 239.794L623.496 237.65L624.369 237.944L629.685 244.082L629.495 248.274L627.758 247.98L626.21 247.001L625.052 247.098L623.021 250.502L623.411 252.353L625.053 253.226L624.958 255.275L623.801 255.863L619.831 253.132V250.694L618.189 250.599L617.515 251.669L617.168 262.578L619.735 267.264L624.282 271.647L624.094 272.918L621.671 272.824L619.45 269.513H617.125L614.223 267.168L613.349 264.731L614.603 262.682L615.035 260.831L616.401 258.41L616.34 252.845L613.003 248.022L612.864 247.434L613.945 246.345L613.694 242.515L609.253 236.888L609.772 233.647L615.276 231.324Z" fill="white"/>
<path d="M528.973 180.643L532.525 176.235H533.865L534.332 177.219L532.69 178.411V179.396L533.771 180.173L538.966 180.485L540.659 179.758L541.429 179.912L541.949 181.572L545.034 181.884L546.582 185.151L546.115 186.136L545.501 186.189L544.889 184.944L543.548 184.84L541.233 185.152L541.077 187.332L538.761 187.177L538.865 184.427L537.171 182.769L534.596 184.894L534.649 186.294L532.384 187.072H531.043L531.147 182.248L528.973 180.643Z" fill="white"/>
<path d="M497.561 176.97L497.026 179.243H493.438V182.321L497.292 184.862L496.101 188.344V189.952L497.7 190.221L499.827 187.41L504.616 186.34L514.85 190.221L514.979 193.03L520.693 193.566L527.073 186.868L526.277 184.723L522.024 183.788L510.06 176.017L509.525 173.207H505.004L503.007 176.96H501.01L497.561 176.97Z" fill="white"/>
<path d="M394.749 194.033L399.529 192.106L401.101 193.126L401.162 194.37L400.428 195.329L400.539 197.032L401.274 197.428V200.489L400.427 201.907L400.538 202.815L403.745 203.947L401.161 207.967L400.149 207.906L399.976 211.138L398.852 211.312L397.893 210.463L398.118 207.179L394.972 204.118L394.575 201.456L396.096 200.264L394.749 194.033Z" fill="white"/>
<path d="M442.045 180.315L439.74 178.889L438.469 177.876L436.331 178.792L434.854 182.532L437.073 182.032L438.635 180.844L442.073 181.782L440.127 183.659L434.952 183.409L433.042 185.502V186.523L434.262 187.544V188.667L433.751 189.999L434.262 191.122L435.887 190.31L437.512 192.047L437.106 193.275L436.502 194.095L437.409 195.116L441.87 196.032L445.009 194.701V192.764L446.53 193.067L450.178 195.211L454.126 194.597L455.847 192.964L456.961 193.37V195.211H458.482L459.795 192.661L471.344 191.432L476.384 190.819L475.053 189.073L475.028 186.714L476.039 185.504L472.357 182.548L472.554 179.997H470.532L467.178 178.354L465.249 180.395L458.161 180.186L453.908 177.637L449.826 178.003L445.282 180.732L442.045 180.315Z" fill="white"/>
<path d="M228.203 260.981L227.286 261.828L226.292 261.983V263.211L228.125 264.898L228.885 263.669L229.343 262.286L229.187 261.137L228.203 260.981Z" fill="white"/>
<path d="M664.919 212.169L661.859 214.503L661.696 218.997L664.342 222.075L664.998 221.495L664.919 212.169Z" fill="white"/>
<path d="M461.453 318.426L475.25 316.736L471.855 310.167L471.673 303.875L472.771 300.866L458.404 291.843L453.902 292.586L452.338 293.744L452.199 296.381L451.187 300.037L450.132 301.29L448.618 301.431L451.427 310.849L456.243 313.687L460.438 313.787L461.453 318.426Z" fill="white"/>
<path d="M429.895 147.2L427.388 148.609L428.01 151.272L425.694 156.156L425.714 158.307L426.803 158.998L433.786 159.344L435.74 157.729L437.832 158.428L440.831 162.43L438.637 166.372L441.247 167.133L444.661 163.2L446.615 163.554L448.43 164.816L446.829 166.925L448.99 170.296H451.289L452.474 168.048L454.912 167.554L454.981 165.731L450.452 165.031L450.592 163.068H454.983L459.72 159.274L461.812 157.45L462.157 151.693L452.821 150.855L448.992 145.453L446.346 144.545L443.139 144.684L441.696 148.253L435.126 148.34L432.991 147.354L429.895 147.2Z" fill="white"/>
<path d="M449.544 290.639L452.163 293.093L453.806 292.048L458.248 291.32L459.01 291.399L459.294 289.711L461.802 284.439L459.693 280.047L452.856 280.091L452.813 281.899L453.73 282.781L453.591 284.588L449.544 290.639Z" fill="white"/>
<path d="M112.822 134.398L111.957 137.873L108.94 135.919H107.436L106.571 139.61L96.017 163.26L98.818 183.866L102.267 185.603L102.915 191.248H110.02L116.909 196.452L130.471 197.757L131.975 204.698L134.127 206.219L137.144 203.186L139.513 204.266L141.665 214.242L145.321 216.628L148.338 210.983L157.596 204.257L163.621 207.074L168.79 207.507L169.006 204.257L179.768 204.474L181.92 206.86L182.352 212.28L181.064 215.314L182.568 220.517H185.801L189.033 215.53L187.745 213.144L186.457 207.94L188.393 202.08L197.219 194.49L203.892 192.537L203.028 186.244L212.286 176.261L221.544 174.74L220.04 169.547L229.082 164.342V157.402L228.217 156.969L224.984 158.051L224.552 162.303L213.807 162.432L205.388 168.026L192.171 172.348L190.062 169.762L196.061 160.686L193.096 157.86L191.082 154.022L186.907 150.668L182.369 150.288L173.794 144.436L112.822 134.398Z" fill="#F7D15D"/>
<path d="M44.024 43.643L47.015 49.237L48.934 48.805V46.867L44.024 43.643Z" fill="white"/>
<path d="M27.159 92.837L27.012 95.439L28.879 95.007V93.849L27.159 92.837Z" fill="white"/>
<path d="M24.29 93.995L20.556 95.88L21.135 97.902L22.57 96.744L25.44 95.438L24.29 93.995Z" fill="white"/>
<path d="M8.774 96.451L6.19 95.872L5.758 97.03L6.043 99.199L8.774 96.451Z" fill="white"/>
<path d="M3.311 96.311L0.865 95.301L0 96.891L1.582 98.482L3.311 96.311Z" fill="white"/>
<path d="M64.718 36.331L57.466 38.052L58.962 46.22L66.854 48.371L67.277 50.091L55.547 53.748L48.934 64.708L51.277 76.317L55.115 78.893L58.106 76.1L58.962 77.821L55.332 82.117L41.25 88.566L32.286 90.717L32.07 93.942L52.764 87.926L61.296 85.557L69.188 75.883L77.936 70.083L73.458 77.604L78.368 78.251L86.692 74.595L88.188 80.612L93.945 81.9L99.918 87.7L100.341 91.996L99.486 93.068L100.549 97.148H102.045L102.261 90.267H103.964L104.387 107.244L108.658 103.587L105.667 85.962H101.189L96.279 79.731L120.387 38.887L96.495 20.191L69.828 25.352L68.765 33.52L74.522 36.959L72.387 42.553L64.718 36.331Z" fill="#F7D15D"/>
<path d="M243.866 370.89L242.093 372.784L242.828 382.967L248.394 384.582L255.474 377.485L243.866 370.89Z" fill="white"/>
<path d="M527.876 186.886L530.538 187.024V182.468L528.016 180.998L532.269 175.64H533.998L535.727 177.655L540.248 175.917L533.998 173.773L533.756 172.476L532.271 172.839L530.81 175.38L524.508 175.173L519.883 168.63L511.758 169.433L507.886 165.595L502.528 164.689L498.637 166.271L500.894 173.773L500.918 176.297L502.561 176.332L504.575 172.493L509.934 172.561L510.73 175.508L522.217 183.133L526.659 184.154L527.876 186.886Z" fill="white"/>
<path d="M228.056 254.991L226.993 255.761L227.832 257.3L229.206 256.53L228.056 254.991Z" fill="white"/>
<path d="M226.759 257.982L225.765 258.976L226.145 259.588H227.364L227.744 258.585L226.759 257.982Z" fill="white"/>
<path d="M200.733 261.967L201.113 264.206L203.922 265.098L204.562 260.974L207.527 257.906L210.492 261.381L217.312 263.24L223.086 262.029L227.019 266.878L229.984 268.736L226.734 273.689L227.823 277.441L225.965 279.74L224.037 281.356L219.862 279.254L218.903 280.223V283.213L221.955 284.665L219.707 287.095L217.459 289.525L214.494 289.283L211.512 286.008L210.881 273.682L200.698 270.206L198.848 264.786L200.733 261.967Z" fill="white"/>
<path d="M628.268 260.696L629.295 262.312L629.485 264.163L632.19 264.457L635.476 260.074L638.571 259.201L640.214 254.723L639.443 247.514L636.254 243.13L632.892 240.442L628.614 233.093L631.682 227.958L627.289 222.919L623.772 222.765L620.608 224.467L621.55 228.538L625.769 229.281L626.902 232.419L625.415 233.388L625.511 234.165L635.407 243.848L635.795 246.692L635.2 255.681L628.268 260.696Z" fill="white"/>
<path d="M780.239 340.888L779.168 342.323L779.618 343.939L780.153 344.301L781.132 343.039L780.239 340.888Z" fill="white"/>
<path d="M780.775 345.288L780.862 346.455L782.02 346.818L782.825 346.369L782.02 345.105L780.775 345.288Z" fill="white"/>
<path d="M782.469 355.712L781.933 356.524L782.737 357.421L784.077 356.973L782.469 355.712Z" fill="white"/>
<path d="M478.665 247.54L479.909 251.24V254.853L482.9 257.567L503.974 248.983L504.172 246.624L500.791 240.557L492.312 243.263L487.446 248.05L481.801 244.714L478.665 247.54Z" fill="white"/>
<path d="M502.548 256.547L504.39 258.606L506.879 257.102L507.776 256.798L506.635 255.693L504.447 256.34L502.548 256.547Z" fill="white"/>
<path d="M445.964 346.429L439.135 352.74L437.51 356.638L432.099 355.964L427.596 359.966L424.605 359.672L424.846 354.141L423.784 353.769L423.041 365.083L417.733 365.031L416.133 363.145L413.789 363.121L415.926 369.25L419.738 372.854L417.015 376.026L418.779 380.003L422.859 381.561L426.109 378.794L435.42 378.847L436.087 378.017L440.219 377.289L454.197 363.372L454.144 358.99L452.649 360.927H450.411L447.688 358.645L449.071 355.205L451.449 354.723L451.232 347.652L445.964 346.429ZM442.688 362.42L443.994 362.368L446.112 364.667L446.051 367.329L443.57 368.582L443.415 369.465L439.63 369.508L438.444 366.655L439.525 364.563L442.688 362.42Z" fill="white"/>
<path d="M429.013 330.065L431.752 333.867L435.996 334.128L437.5 334.957L441.943 335.01L445.772 329.643L456.474 324.854L457.408 320.635L456.164 314.592L450.58 311.411L446.853 311.671L444.996 315.785L445.049 317.661L449.44 319.797L449.7 324.439L445.925 324.647L444.99 323.083L434.495 318.604L434.184 322.044L429.222 322.199L429.013 330.065Z" fill="white"/>
<path d="M437.753 336.635L445.508 345.392L451.454 346.905L455.438 340.657L455.126 332.376L448.661 329.039L446.23 330.137L442.61 335.661L437.596 335.608L437.753 336.635Z" fill="white"/>
</svg>
